*
G04 Mass Parameters ***
*
G04 Image ***
*
%INC:\USERS\OSVALDO COLLALTI\DESKTOP\LAVORII IN CORSO\22-311-0\22-311-0.SSB*%
%ICAS*%
%MOIN*%
%IPPOS*%
%ASAXBY*%
G74*%FSLAN2X34Y34*%
*
G04 Aperture Definitions ***
*
%ADD10C,0.1299*%
%ADD11C,0.0394*%
%ADD12C,0.0590*%
%ADD13R,0.0590X0.0590*%
%ADD14C,0.0787*%
%ADD15C,0.0512*%
%ADD16R,0.0787X0.0787*%
%ADD17C,0.1200*%
%ADD18R,0.1200X0.1200*%
%ADD19R,0.0669X0.0669*%
%ADD20R,0.0500X0.0400*%
%ADD21R,0.0380X0.0320*%
%ADD22R,0.0710X0.0400*%
%ADD23C,0.0100*%
%ADD24C,0.0250*%
%ADD25C,0.0120*%
%ADD26C,0.0500*%
%ADD27C,0.1000*%
%ADD28C,0.0394*%
%ADD29C,0.0060*%
%ADD30C,0.0079*%
*
G04 Plot Data ***
*
G54D23*
G01X0011308Y0016192D02*
Y0016025D01*
Y0016108D02*
X0011808D01*
X0011725Y0016025D01*
X0010967Y0004483D02*
Y0004316D01*
Y0004400D02*
X0011467D01*
X0011384Y0004316D01*
X0013358Y0009792D02*
Y0009625D01*
Y0009708D02*
X0013858D01*
X0013775Y0009625D01*
G54D29*
G01X0008420Y0015306D02*
Y0015119D01*
X0008686Y0015212D01*
Y0015259D01*
X0008286D01*
X0008420Y0014812D02*
X0008353D01*
X0008286Y0014836D01*
Y0014929D01*
X0008353Y0014952D01*
X0008686D01*
Y0014976D02*
Y0014882D01*
X0009554Y0002714D02*
Y0002621D01*
Y0002668D02*
X0009954D01*
X0009887Y0002621D01*
X0009687Y0002268D02*
X0009620D01*
X0009554Y0002291D01*
Y0002384D01*
X0009620Y0002408D01*
X0009954D01*
Y0002431D02*
Y0002338D01*
X0010167Y0008567D02*
Y0008380D01*
X0010433Y0008567D01*
X0010500D01*
X0010567Y0008543D01*
Y0008403D01*
X0010500Y0008380D01*
X0010300Y0008073D02*
X0010233D01*
X0010167Y0008097D01*
Y0008190D01*
X0010233Y0008213D01*
X0010567D01*
Y0008237D02*
Y0008143D01*
X0012558Y0006839D02*
X0012426D01*
X0011383Y0006649D02*
X0011633D01*
X0012367D02*
X0012617D01*
X0011939Y0006852D02*
Y0006616D01*
X0012061D01*
Y0006852D01*
X0011939Y0006337D02*
Y0006616D01*
X0012061D02*
Y0006337D01*
X0011383Y0008867D02*
X0011633D01*
Y0008617D01*
X0011574Y0008676D01*
X0011442D01*
X0011383Y0008617D01*
Y0008867D01*
X0011442Y0008808D01*
X0011574D01*
Y0008676D01*
X0011442Y0008808D02*
Y0008676D01*
X0011633Y0008867D02*
X0011574Y0008808D01*
X0012558Y0008676D02*
X0012617Y0008617D01*
Y0008867D01*
X0012558Y0008808D01*
Y0008676D01*
X0012426D01*
X0012367Y0008617D01*
Y0008867D01*
X0012426Y0008808D01*
Y0008676D01*
X0012367Y0008867D02*
X0012617D01*
X0012558Y0008808D02*
X0012426D01*
X0011383Y0008617D02*
X0011633D01*
X0012367D02*
X0012617D01*
X0011383Y0007883D02*
X0011633D01*
Y0007633D01*
X0011574Y0007692D01*
X0011442D01*
X0011383Y0007633D01*
Y0007883D01*
X0011442Y0007824D01*
X0011574D01*
Y0007692D01*
X0011442Y0007824D02*
Y0007692D01*
X0011633Y0007883D02*
X0011574Y0007824D01*
X0012558Y0007692D02*
X0012617Y0007633D01*
Y0007883D01*
X0012558Y0007824D01*
Y0007692D01*
X0012426D01*
X0012367Y0007633D01*
Y0007883D01*
X0012426Y0007824D01*
Y0007692D01*
X0012367Y0007883D02*
X0012617D01*
X0012558Y0007824D02*
X0012426D01*
X0011383Y0007633D02*
X0011633D01*
X0012367D02*
X0012617D01*
X0014224Y0009274D02*
X0014079D01*
Y0007226D01*
X0014224D01*
X0014303Y0007305D02*
Y0009195D01*
X0013504Y0009274D02*
X0014079D01*
X0013504Y0007226D02*
X0014079D01*
X0012923Y0007726D02*
Y0007384D01*
Y0009289D02*
X0012061D01*
Y0010163D01*
X0012923D01*
Y0009289D01*
X0011077Y0007321D02*
Y0008195D01*
X0011939D01*
Y0007321D01*
X0011077D01*
Y0008305D02*
Y0009179D01*
X0011939D01*
Y0008305D01*
X0011077D01*
Y0009289D02*
Y0010163D01*
X0011939D01*
Y0009289D01*
X0011077D01*
X0012558Y0009792D02*
X0012426D01*
X0012367Y0009601D02*
X0012617D01*
X0011077Y0006337D02*
Y0007211D01*
X0011939D01*
Y0006852D01*
X0012061D01*
Y0007211D01*
X0012923D01*
Y0006337D01*
X0011077D01*
X0013504Y0009116D02*
Y0009274D01*
X0013177D01*
Y0010403D01*
X0010823D01*
Y0006096D01*
X0013177D01*
Y0007226D01*
X0013504D01*
Y0007384D01*
X0013968D01*
Y0009116D01*
X0013504D01*
X0012923D01*
Y0008774D01*
Y0008305D01*
X0012061D01*
Y0009179D01*
X0012923D01*
Y0009116D01*
X0013504Y0007384D02*
X0012923D01*
Y0007321D01*
X0012061D01*
Y0008195D01*
X0012923D01*
Y0007726D01*
X0013031D01*
Y0008774D01*
X0012923D01*
X0011383Y0009851D02*
X0011633D01*
Y0009601D01*
X0011383D01*
Y0009851D01*
X0011442Y0009792D01*
X0011574D01*
Y0009660D01*
X0011442D01*
Y0009792D01*
X0012558Y0009660D02*
X0012617Y0009601D01*
Y0009851D01*
X0012558Y0009792D01*
Y0009660D01*
X0012426D01*
X0012367Y0009601D01*
Y0009851D01*
X0012426Y0009792D01*
Y0009660D01*
X0012367Y0009851D02*
X0012617D01*
X0011633D02*
X0011574Y0009792D01*
X0011633Y0009601D02*
X0011574Y0009660D01*
X0011383Y0009601D02*
X0011442Y0009660D01*
Y0006839D02*
X0011383Y0006899D01*
Y0006649D01*
X0011442Y0006708D01*
Y0006839D01*
X0011574D01*
X0011633Y0006899D01*
Y0006649D01*
X0011574Y0006708D01*
Y0006839D01*
X0011442Y0006708D02*
X0011574D01*
X0012558D02*
X0012617Y0006649D01*
Y0006899D01*
X0012558Y0006839D01*
Y0006708D01*
X0012426D01*
X0012367Y0006649D01*
Y0006899D01*
X0012426Y0006839D01*
Y0006708D01*
X0011383Y0006899D02*
X0011633D01*
X0012367D02*
X0012617D01*
G01X0014224Y0007226D02*
G03X0014303Y0007305I0000000J0000079D01*
G01X0014236Y0009275D02*
G03X0014223Y0009275I0000000J0000068D01*
G01X0014304Y0009207D02*
G03X0014236Y0009275I0000068J0000000D01*
G01X0014303Y0009195D02*
G03X0014304Y0009207I0000067J0000012D01*
G54D30*
G01X0010748Y0013189D02*
X0009252D01*
Y0014291D01*
X0009606Y0014646D01*
X0010433D01*
X0010748Y0014331D01*
Y0013189D01*
X0011063Y0013110D02*
X0008937D01*
Y0016890D01*
X0011063D01*
Y0013110D01*
X0009609D02*
Y0012559D01*
X0009538Y0013110D02*
Y0012559D01*
X0009468Y0013110D02*
Y0012559D01*
X0009397Y0013110D02*
Y0012559D01*
X0010669Y0013050D02*
X0009331D01*
X0010669Y0012979D02*
X0009331D01*
X0010669Y0012908D02*
X0009331D01*
X0010669Y0012838D02*
X0009331D01*
X0010669Y0012767D02*
X0009331D01*
X0010669Y0012696D02*
X0009331D01*
X0010388Y0013110D02*
Y0012559D01*
X0010317Y0013110D02*
Y0012559D01*
X0010246Y0013110D02*
Y0012559D01*
X0010176Y0013110D02*
Y0012559D01*
X0010105Y0013110D02*
Y0012559D01*
X0010034Y0013110D02*
Y0012559D01*
X0009963Y0013110D02*
Y0012559D01*
X0009892Y0013110D02*
Y0012559D01*
X0009822Y0013110D02*
Y0012559D01*
X0009751Y0013110D02*
Y0012559D01*
X0009680Y0013110D02*
Y0012559D01*
X0010669Y0012625D02*
X0009331D01*
X0010669Y0013110D02*
X0009331D01*
Y0012559D01*
X0010669D02*
X0009331D01*
X0010669Y0013110D02*
Y0012559D01*
X0010600Y0013110D02*
Y0012559D01*
X0010530Y0013110D02*
Y0012559D01*
X0010459Y0013110D02*
Y0012559D01*
X0010748Y0015354D02*
X0009252D01*
Y0016811D01*
X0010748D01*
Y0015354D01*
X0010463Y0001045D02*
X0011880D01*
Y0004116D01*
X0010463D01*
Y0001045D01*
X0010856Y0004116D02*
Y0003958D01*
X0011722D01*
Y0001203D01*
X0010856D01*
Y0001045D01*
X0010529Y0003529D02*
Y0002970D01*
X0010530Y0003528D02*
X0010463D01*
X0010593Y0003457D02*
X0010463D01*
X0010656Y0003387D02*
X0010463D01*
X0010719Y0003316D02*
X0010463D01*
X0010773Y0003245D02*
X0010463D01*
X0010710Y0003174D02*
X0010463D01*
X0010647Y0003103D02*
X0010463D01*
X0010584Y0003033D02*
X0010463D01*
X0010521Y0002962D02*
X0010463D01*
Y0002935D02*
Y0002896D01*
Y0003604D02*
Y0002935D01*
Y0003604D02*
X0010778Y0003250D01*
X0010463Y0002896D01*
X0010741Y0003291D02*
Y0003209D01*
X0010670Y0003370D02*
Y0003129D01*
X0010600Y0003450D02*
Y0003050D01*
M02*
