*
G04 Mass Parameters ***
*
G04 Image ***
*
%INC:\USERS\OSVALDO COLLALTI\DESKTOP\LAVORII IN CORSO\22-311-0\22-311-0.SST*%
%ICAS*%
%MOIN*%
%IPPOS*%
%ASAXBY*%
G74*%FSLAN2X34Y34*%
*
G04 Aperture Definitions ***
*
%ADD10C,0.1299*%
%ADD11C,0.0394*%
%ADD12C,0.0590*%
%ADD13R,0.0590X0.0590*%
%ADD14C,0.0787*%
%ADD15C,0.0512*%
%ADD16R,0.0787X0.0787*%
%ADD17C,0.1200*%
%ADD18R,0.1200X0.1200*%
%ADD19R,0.0669X0.0669*%
%ADD20R,0.0500X0.0400*%
%ADD21R,0.0380X0.0320*%
%ADD22R,0.0710X0.0400*%
%ADD23C,0.0100*%
%ADD24C,0.0250*%
%ADD25C,0.0120*%
%ADD26C,0.0500*%
%ADD27C,0.1000*%
%ADD28C,0.0394*%
%ADD29C,0.0060*%
%ADD30C,0.0079*%
*
G04 Plot Data ***
*
G54D23*
G01X0003398Y0006248D02*
Y0006415D01*
Y0006332D02*
X0003898D01*
X0003815Y0006415D01*
X0008398Y0006248D02*
Y0006415D01*
Y0006332D02*
X0008898D01*
X0008815Y0006415D01*
G54D29*
G01X0003505Y0012644D02*
X0003450Y0012722D01*
X0003423Y0012800D01*
Y0012955D01*
X0003450Y0013033D01*
X0003505Y0013111D01*
X0003559D01*
X0003614Y0013033D01*
X0003641Y0012955D01*
Y0012800D01*
X0003614Y0012722D01*
X0003559Y0012644D01*
X0003505D01*
X0003276Y0012878D02*
X0003058D01*
X0002911Y0012644D02*
X0002802D01*
X0002856D02*
Y0013111D01*
X0002802Y0013033D01*
X0002600Y0012644D02*
X0002492D01*
X0002546D02*
Y0013111D01*
X0002492Y0013033D01*
X0002072Y0012722D02*
X0002127Y0012644D01*
X0002235D01*
X0002290Y0012722D01*
Y0012800D01*
X0002181Y0012955D01*
X0002290Y0013111D01*
X0002072D01*
X0001925Y0012878D02*
X0001707D01*
X0001560Y0012644D02*
X0001342D01*
X0001560Y0012955D01*
Y0013033D01*
X0001533Y0013111D01*
X0001369D01*
X0001342Y0013033D01*
X0001195Y0012644D02*
X0000977D01*
X0001195Y0012955D01*
Y0013033D01*
X0001168Y0013111D01*
X0001004D01*
X0000977Y0013033D01*
X0013747Y0010808D02*
Y0011042D01*
X0013497Y0010808D02*
X0013997D01*
X0013497Y0011042D02*
X0013997D01*
X0013581Y0011191D02*
X0013497Y0011220D01*
Y0011395D01*
X0013581Y0011424D01*
X0013914D01*
X0013997Y0011395D01*
Y0011220D01*
X0013914Y0011191D01*
Y0011573D02*
X0013997Y0011602D01*
Y0011777D01*
X0013914Y0011807D01*
X0013831D01*
X0013747Y0011777D01*
Y0011602D01*
X0013664Y0011573D01*
X0013581D01*
X0013497Y0011602D01*
Y0011777D01*
X0013581Y0011807D01*
X0014397Y0010875D02*
X0014647D01*
X0014897Y0010758D02*
X0014647Y0010846D01*
Y0010904D01*
X0014897Y0010992D01*
X0014814Y0011141D02*
X0014897Y0011170D01*
Y0011345D01*
X0014814Y0011374D01*
X0014731D01*
X0014647Y0011345D01*
Y0011170D01*
X0014564Y0011141D01*
X0014481D01*
X0014397Y0011170D01*
Y0011345D01*
X0014481Y0011374D01*
X0014814Y0011523D02*
X0014897Y0011552D01*
Y0011727D01*
X0014814Y0011757D01*
X0014731D01*
X0014647Y0011727D01*
Y0011552D01*
X0014564Y0011523D01*
X0014481D01*
X0014397Y0011552D01*
Y0011727D01*
X0014481Y0011757D01*
X0014564Y0011906D02*
Y0012139D01*
X0014397Y0011906D02*
X0014647D01*
X0014897Y0011993D01*
Y0012052D01*
X0014647Y0012139D01*
X0014397D01*
X0003864Y0014859D02*
X0003797Y0014812D01*
Y0014719D01*
X0003864Y0014672D01*
X0003930D01*
X0004064Y0014766D01*
X0004197Y0014672D01*
Y0014859D01*
X0003930Y0015166D02*
X0003864D01*
X0003797Y0015142D01*
Y0015049D01*
X0003864Y0015026D01*
X0004197D01*
Y0015002D02*
Y0015096D01*
X0009859Y0001420D02*
Y0001513D01*
Y0001466D02*
X0010259D01*
X0010192Y0001513D01*
X0009992Y0001796D02*
X0009859Y0001703D01*
X0009926Y0001890D02*
X0009859Y0001866D01*
Y0001773D01*
X0009926Y0001750D01*
X0009992Y0001703D01*
X0010192D01*
X0010259Y0001726D01*
Y0001866D01*
X0010192Y0001890D01*
X0009926D01*
X0006023Y0000605D02*
X0006423Y0000465D01*
Y0000652D01*
X0006223Y0000865D02*
X0006023Y0000795D01*
X0006223Y0000982D02*
Y0000842D01*
X0006289Y0000795D01*
X0006356D01*
X0006423Y0000842D01*
Y0000982D01*
X0006023D01*
X0007060Y0000501D02*
Y0000594D01*
Y0000548D02*
X0007460D01*
X0007394Y0000594D01*
X0007260Y0000854D02*
X0007060Y0000784D01*
X0007260Y0000971D02*
Y0000831D01*
X0007327Y0000784D01*
X0007394D01*
X0007460Y0000831D01*
Y0000971D01*
X0007060D01*
X0003683Y0009820D02*
X0003617Y0009797D01*
Y0009657D01*
X0003683Y0009633D01*
X0003817D01*
X0003883Y0009680D01*
Y0009820D01*
X0004017D01*
Y0009633D01*
X0003750Y0010127D02*
X0003683D01*
X0003617Y0010103D01*
Y0010010D01*
X0003683Y0009987D01*
X0004017D01*
Y0009963D02*
Y0010057D01*
X0007139Y0005202D02*
X0007073Y0005155D01*
Y0005062D01*
X0007139Y0005015D01*
X0007206D01*
X0007339Y0005109D01*
X0007473Y0005015D01*
Y0005202D01*
X0007273Y0005415D02*
X0007073Y0005345D01*
X0007273Y0005532D02*
Y0005392D01*
X0007339Y0005345D01*
X0007406D01*
X0007473Y0005392D01*
Y0005532D01*
X0007073D01*
X0005377Y0002960D02*
X0005310Y0002937D01*
Y0002797D01*
X0005377Y0002773D01*
X0005510D01*
X0005577Y0002820D01*
Y0002960D01*
X0005710D01*
Y0002773D01*
X0005510Y0003173D02*
X0005310Y0003103D01*
X0005510Y0003290D02*
Y0003150D01*
X0005577Y0003103D01*
X0005644D01*
X0005710Y0003150D01*
Y0003290D01*
X0005310D01*
X0008467Y0009773D02*
X0008867Y0009633D01*
Y0009820D01*
X0008600Y0010127D02*
X0008533D01*
X0008467Y0010103D01*
Y0010010D01*
X0008533Y0009987D01*
X0008867D01*
Y0009963D02*
Y0010057D01*
X0009239Y0005007D02*
Y0005194D01*
X0009505Y0005007D01*
X0009572D01*
X0009639Y0005030D01*
Y0005170D01*
X0009572Y0005194D01*
X0009439Y0005407D02*
X0009239Y0005337D01*
X0009439Y0005524D02*
Y0005384D01*
X0009505Y0005337D01*
X0009572D01*
X0009639Y0005384D01*
Y0005524D01*
X0009239D01*
X0003954Y0003552D02*
Y0003412D01*
X0003887Y0003389D01*
X0003820D01*
X0003754Y0003412D01*
Y0003552D01*
X0003820Y0003575D01*
X0003887D01*
X0004154Y0003482D01*
X0003887Y0003882D02*
X0003820D01*
X0003754Y0003859D01*
Y0003765D01*
X0003820Y0003742D01*
X0004154D01*
Y0003719D02*
Y0003812D01*
X0008172Y0005007D02*
Y0005194D01*
X0008439Y0005100D01*
Y0005054D01*
X0008039D01*
X0008239Y0005407D02*
X0008039Y0005337D01*
X0008239Y0005524D02*
Y0005384D01*
X0008305Y0005337D01*
X0008372D01*
X0008439Y0005384D01*
Y0005524D01*
X0008039D01*
X0003867Y0016137D02*
Y0016230D01*
Y0016183D02*
X0004267D01*
X0004200Y0016230D01*
X0006273Y0005179D02*
Y0005039D01*
X0006206Y0005015D01*
X0006139D01*
X0006073Y0005039D01*
Y0005179D01*
X0006139Y0005202D01*
X0006206D01*
X0006473Y0005109D01*
X0006273Y0005415D02*
X0006073Y0005345D01*
X0006273Y0005532D02*
Y0005392D01*
X0006339Y0005345D01*
X0006406D01*
X0006473Y0005392D01*
Y0005532D01*
X0006073D01*
X0006383Y0008125D02*
X0006633D01*
Y0008375D01*
X0006574Y0008316D01*
X0006442D01*
X0006383Y0008375D01*
Y0008125D01*
X0006442Y0008184D01*
X0006574D01*
Y0008316D01*
X0006442Y0008184D02*
Y0008316D01*
X0006633Y0008125D02*
X0006574Y0008184D01*
X0007558Y0008316D02*
X0007617Y0008375D01*
Y0008125D01*
X0007558Y0008184D01*
Y0008316D01*
X0007426D01*
X0007367Y0008375D01*
Y0008125D01*
X0007426Y0008184D01*
Y0008316D01*
X0007367Y0008125D02*
X0007617D01*
X0007558Y0008184D02*
X0007426D01*
X0006383Y0008375D02*
X0006633D01*
X0007367D02*
X0007617D01*
X0006383Y0007141D02*
X0006633D01*
Y0007391D01*
X0006574Y0007332D01*
X0006442D01*
X0006383Y0007391D01*
Y0007141D01*
X0006442Y0007200D01*
X0006574D01*
Y0007332D01*
X0006442Y0007200D02*
Y0007332D01*
X0006633Y0007141D02*
X0006574Y0007200D01*
X0007558Y0007332D02*
X0007617Y0007391D01*
Y0007141D01*
X0007558Y0007200D01*
Y0007332D01*
X0007426D01*
X0007367Y0007391D01*
Y0007141D01*
X0007426Y0007200D01*
Y0007332D01*
X0007367Y0007141D02*
X0007617D01*
X0007558Y0007200D02*
X0007426D01*
X0006383Y0007391D02*
X0006633D01*
X0007367D02*
X0007617D01*
X0006383Y0009109D02*
X0006633D01*
Y0009359D01*
X0006574Y0009300D01*
X0006442D01*
X0006383Y0009359D01*
Y0009109D01*
X0006442Y0009168D01*
X0006574D01*
Y0009300D01*
X0006442Y0009168D02*
Y0009300D01*
X0006633Y0009109D02*
X0006574Y0009168D01*
X0007558Y0009300D02*
X0007617Y0009359D01*
Y0009109D01*
X0007558Y0009168D01*
Y0009300D01*
X0007426D01*
X0007367Y0009359D01*
Y0009109D01*
X0007426Y0009168D01*
Y0009300D01*
X0007367Y0009109D02*
X0007617D01*
X0007558Y0009168D02*
X0007426D01*
X0006383Y0009359D02*
X0006633D01*
X0007367D02*
X0007617D01*
X0009224Y0007226D02*
X0009079D01*
Y0009274D01*
X0009224D01*
X0009303Y0009195D02*
Y0007290D01*
X0008504Y0007226D02*
X0009079D01*
X0008504Y0009274D02*
X0009079D01*
X0007923Y0008797D02*
Y0009116D01*
Y0006718D02*
X0007061D01*
Y0005844D01*
X0007923D01*
Y0006718D01*
X0006077Y0009671D02*
Y0008797D01*
X0006939D01*
Y0009671D01*
X0006077D01*
Y0008687D02*
Y0007813D01*
X0006939D01*
Y0008687D01*
X0006077D01*
Y0007703D02*
Y0006829D01*
X0006939D01*
Y0007703D01*
X0006077D01*
Y0006718D02*
Y0005844D01*
X0006939D01*
Y0006718D01*
X0006077D01*
X0007558Y0006215D02*
X0007426D01*
X0007367Y0006406D02*
X0007617D01*
X0006383Y0010093D02*
X0006633D01*
X0007367D02*
X0007617D01*
X0007558Y0010152D02*
X0007426D01*
X0006383Y0010343D02*
X0006633D01*
X0007367D02*
X0007617D01*
X0006442Y0010152D02*
X0006383Y0010093D01*
Y0010343D01*
X0006442Y0010284D01*
Y0010152D01*
X0006574D01*
X0006633Y0010093D01*
Y0010343D01*
X0006574Y0010284D01*
Y0010152D01*
X0006442Y0010284D02*
X0006574D01*
X0007558D02*
X0007617Y0010343D01*
Y0010093D01*
X0007558Y0010152D01*
Y0010284D01*
X0007426D01*
X0007367Y0010343D01*
Y0010093D01*
X0007426Y0010152D01*
Y0010284D01*
X0014118Y0008438D02*
X0013418D01*
X0014118Y0008384D02*
X0013418D01*
X0014118Y0008330D02*
X0013418D01*
X0014118Y0008276D02*
X0013418D01*
X0014118Y0008222D02*
X0013418D01*
X0014118Y0008168D02*
X0013418D01*
X0014118Y0008114D02*
X0013418D01*
X0014118Y0008060D02*
X0013418D01*
X0014118Y0008006D02*
X0013418D01*
X0014118Y0007952D02*
X0013418D01*
X0014118Y0007898D02*
X0013418D01*
X0014118Y0007844D02*
X0013418D01*
X0014118Y0007790D02*
X0013418D01*
X0014118Y0007736D02*
X0013418D01*
X0014118Y0007682D02*
X0013418D01*
X0014118Y0007628D02*
X0013418D01*
X0014118Y0007574D02*
X0013418D01*
X0014118Y0007520D02*
X0013418D01*
X0014118Y0007466D02*
X0013418D01*
X0014118Y0007412D02*
X0013418D01*
X0014118Y0007358D02*
X0013418D01*
X0014118Y0007304D02*
X0013418D01*
X0014118Y0007250D02*
X0013418D01*
X0014118Y0007196D02*
X0013418D01*
X0014118Y0007142D02*
X0013418D01*
X0014118Y0007088D02*
X0013418D01*
X0014118Y0007034D02*
X0013418D01*
X0014118Y0006980D02*
X0013418D01*
X0014118Y0006926D02*
X0013418D01*
X0014118Y0006872D02*
X0013418D01*
X0014118Y0006818D02*
X0013418D01*
X0014118Y0006764D02*
X0013418D01*
X0014118Y0006710D02*
X0013418D01*
X0014118Y0006656D02*
X0013418D01*
X0014118Y0006602D02*
X0013418D01*
X0014118Y0006548D02*
X0013418D01*
X0014118Y0006494D02*
X0013418D01*
X0014118Y0006440D02*
X0013418D01*
X0014118Y0006386D02*
X0013418D01*
X0014118Y0006332D02*
X0013418D01*
X0014118Y0006278D02*
X0013418D01*
X0014118Y0006224D02*
X0013418D01*
X0014118Y0006170D02*
X0013418D01*
X0014118Y0006116D02*
X0013418D01*
X0014118Y0006062D02*
X0013418D01*
X0014118Y0006008D02*
X0013418D01*
X0014118Y0005954D02*
X0013418D01*
X0014118Y0005900D02*
X0013418D01*
X0014118Y0005846D02*
X0013418D01*
X0014118Y0005792D02*
X0013418D01*
X0014118Y0005738D02*
X0013418D01*
X0014118Y0005684D02*
X0013418D01*
X0014118Y0005630D02*
X0013418D01*
X0014118Y0005576D02*
X0013418D01*
X0014118Y0005522D02*
X0013418D01*
X0014118Y0005468D02*
X0013418D01*
X0014118Y0005414D02*
X0013418D01*
X0014118Y0005360D02*
X0013418D01*
X0014118Y0005306D02*
X0013418D01*
X0014118Y0005252D02*
X0013418D01*
X0014118Y0005198D02*
X0013418D01*
X0014118Y0005144D02*
X0013418D01*
X0014118Y0005090D02*
X0013418D01*
X0014118Y0005050D02*
X0013418D01*
X0014118Y0010650D02*
Y0005050D01*
Y0010650D02*
X0013418D01*
Y0005050D01*
X0014106Y0010650D02*
Y0005050D01*
X0014052Y0010650D02*
Y0005050D01*
X0013998Y0010650D02*
Y0005050D01*
X0013944Y0010650D02*
Y0005050D01*
X0013890Y0010650D02*
Y0005050D01*
X0013836Y0010650D02*
Y0005050D01*
X0013782Y0010650D02*
Y0005050D01*
X0013728Y0010650D02*
Y0005050D01*
X0013674Y0010650D02*
Y0005050D01*
X0013620Y0010650D02*
Y0005050D01*
X0013566Y0010650D02*
Y0005050D01*
X0013512Y0010650D02*
Y0005050D01*
X0013458Y0010650D02*
Y0005050D01*
X0014118Y0010598D02*
X0013418D01*
X0014118Y0010544D02*
X0013418D01*
X0014118Y0010490D02*
X0013418D01*
X0014118Y0010436D02*
X0013418D01*
X0014118Y0010382D02*
X0013418D01*
X0014118Y0010328D02*
X0013418D01*
X0014118Y0010274D02*
X0013418D01*
X0014118Y0010220D02*
X0013418D01*
X0014118Y0010166D02*
X0013418D01*
X0014118Y0010112D02*
X0013418D01*
X0014118Y0010058D02*
X0013418D01*
X0014118Y0010004D02*
X0013418D01*
X0014118Y0009950D02*
X0013418D01*
X0014118Y0009896D02*
X0013418D01*
X0014118Y0009842D02*
X0013418D01*
X0014118Y0009788D02*
X0013418D01*
X0014118Y0009734D02*
X0013418D01*
X0014118Y0009680D02*
X0013418D01*
X0014118Y0009626D02*
X0013418D01*
X0014118Y0009572D02*
X0013418D01*
X0014118Y0009518D02*
X0013418D01*
X0014118Y0009464D02*
X0013418D01*
X0014118Y0009410D02*
X0013418D01*
X0014118Y0009356D02*
X0013418D01*
X0014118Y0009302D02*
X0013418D01*
X0014118Y0009248D02*
X0013418D01*
X0014118Y0009194D02*
X0013418D01*
X0014118Y0009140D02*
X0013418D01*
X0014118Y0009086D02*
X0013418D01*
X0014118Y0009032D02*
X0013418D01*
X0014118Y0008978D02*
X0013418D01*
X0014118Y0008924D02*
X0013418D01*
X0014118Y0008870D02*
X0013418D01*
X0014118Y0008816D02*
X0013418D01*
X0014118Y0008762D02*
X0013418D01*
X0014118Y0008708D02*
X0013418D01*
X0014118Y0008654D02*
X0013418D01*
X0014118Y0008600D02*
X0013418D01*
X0014118Y0008546D02*
X0013418D01*
X0014118Y0008492D02*
X0013418D01*
X0006939Y0010140D02*
Y0010376D01*
X0007061D01*
Y0010140D01*
X0015018Y0008438D02*
X0014318D01*
X0015018Y0008384D02*
X0014318D01*
X0015018Y0008330D02*
X0014318D01*
X0015018Y0008276D02*
X0014318D01*
X0015018Y0008222D02*
X0014318D01*
X0015018Y0008168D02*
X0014318D01*
X0015018Y0008114D02*
X0014318D01*
X0015018Y0008060D02*
X0014318D01*
X0015018Y0008006D02*
X0014318D01*
X0015018Y0007952D02*
X0014318D01*
X0015018Y0007898D02*
X0014318D01*
X0015018Y0007844D02*
X0014318D01*
X0015018Y0007790D02*
X0014318D01*
X0015018Y0007736D02*
X0014318D01*
X0015018Y0007682D02*
X0014318D01*
X0015018Y0007628D02*
X0014318D01*
X0015018Y0007574D02*
X0014318D01*
X0015018Y0007520D02*
X0014318D01*
X0015018Y0007466D02*
X0014318D01*
X0015018Y0007412D02*
X0014318D01*
X0015018Y0007358D02*
X0014318D01*
X0015018Y0007304D02*
X0014318D01*
X0015018Y0007250D02*
X0014318D01*
X0015018Y0007196D02*
X0014318D01*
X0015018Y0007142D02*
X0014318D01*
X0015018Y0007088D02*
X0014318D01*
X0015018Y0007034D02*
X0014318D01*
X0015018Y0006980D02*
X0014318D01*
X0015018Y0006926D02*
X0014318D01*
X0015018Y0006872D02*
X0014318D01*
X0015018Y0006818D02*
X0014318D01*
X0015018Y0006764D02*
X0014318D01*
X0015018Y0006710D02*
X0014318D01*
X0015018Y0006656D02*
X0014318D01*
X0015018Y0006602D02*
X0014318D01*
X0015018Y0006548D02*
X0014318D01*
X0015018Y0006494D02*
X0014318D01*
X0015018Y0006440D02*
X0014318D01*
X0015018Y0006386D02*
X0014318D01*
X0015018Y0006332D02*
X0014318D01*
X0015018Y0006278D02*
X0014318D01*
X0015018Y0006224D02*
X0014318D01*
X0015018Y0006170D02*
X0014318D01*
X0015018Y0006116D02*
X0014318D01*
X0015018Y0006062D02*
X0014318D01*
X0015018Y0006008D02*
X0014318D01*
X0015018Y0005954D02*
X0014318D01*
X0015018Y0005900D02*
X0014318D01*
X0015018Y0005846D02*
X0014318D01*
X0015018Y0005792D02*
X0014318D01*
X0015018Y0005738D02*
X0014318D01*
X0015018Y0005684D02*
X0014318D01*
X0015018Y0005630D02*
X0014318D01*
X0015018Y0005576D02*
X0014318D01*
X0015018Y0005522D02*
X0014318D01*
X0015018Y0005468D02*
X0014318D01*
X0015018Y0005414D02*
X0014318D01*
X0015018Y0005360D02*
X0014318D01*
X0015018Y0005306D02*
X0014318D01*
X0015018Y0005252D02*
X0014318D01*
X0015018Y0005198D02*
X0014318D01*
X0015018Y0005144D02*
X0014318D01*
X0015018Y0005090D02*
X0014318D01*
Y0010650D02*
Y0005050D01*
X0015018Y0010650D02*
X0014318D01*
X0015018D02*
Y0005050D01*
X0014318D01*
X0015006Y0010650D02*
Y0005050D01*
X0014952Y0010650D02*
Y0005050D01*
X0014898Y0010650D02*
Y0005050D01*
X0014844Y0010650D02*
Y0005050D01*
X0014790Y0010650D02*
Y0005050D01*
X0014736Y0010650D02*
Y0005050D01*
X0014682Y0010650D02*
Y0005050D01*
X0014628Y0010650D02*
Y0005050D01*
X0014574Y0010650D02*
Y0005050D01*
X0014520Y0010650D02*
Y0005050D01*
X0014466Y0010650D02*
Y0005050D01*
X0014412Y0010650D02*
Y0005050D01*
X0014358Y0010650D02*
Y0005050D01*
X0015018Y0010598D02*
X0014318D01*
X0015018Y0010544D02*
X0014318D01*
X0015018Y0010490D02*
X0014318D01*
X0015018Y0010436D02*
X0014318D01*
X0015018Y0010382D02*
X0014318D01*
X0015018Y0010328D02*
X0014318D01*
X0015018Y0010274D02*
X0014318D01*
X0015018Y0010220D02*
X0014318D01*
X0015018Y0010166D02*
X0014318D01*
X0015018Y0010112D02*
X0014318D01*
X0015018Y0010058D02*
X0014318D01*
X0015018Y0010004D02*
X0014318D01*
X0015018Y0009950D02*
X0014318D01*
X0015018Y0009896D02*
X0014318D01*
X0015018Y0009842D02*
X0014318D01*
X0015018Y0009788D02*
X0014318D01*
X0015018Y0009734D02*
X0014318D01*
X0015018Y0009680D02*
X0014318D01*
X0015018Y0009626D02*
X0014318D01*
X0015018Y0009572D02*
X0014318D01*
X0015018Y0009518D02*
X0014318D01*
X0015018Y0009464D02*
X0014318D01*
X0015018Y0009410D02*
X0014318D01*
X0015018Y0009356D02*
X0014318D01*
X0015018Y0009302D02*
X0014318D01*
X0015018Y0009248D02*
X0014318D01*
X0015018Y0009194D02*
X0014318D01*
X0015018Y0009140D02*
X0014318D01*
X0015018Y0009086D02*
X0014318D01*
X0015018Y0009032D02*
X0014318D01*
X0015018Y0008978D02*
X0014318D01*
X0015018Y0008924D02*
X0014318D01*
X0015018Y0008870D02*
X0014318D01*
X0015018Y0008816D02*
X0014318D01*
X0015018Y0008762D02*
X0014318D01*
X0015018Y0008708D02*
X0014318D01*
X0015018Y0008654D02*
X0014318D01*
X0015018Y0008600D02*
X0014318D01*
X0015018Y0008546D02*
X0014318D01*
X0015018Y0008492D02*
X0014318D01*
X0006939Y0010655D02*
Y0010376D01*
X0007061D02*
Y0010655D01*
X0006575Y0003675D02*
Y0004825D01*
X0005930D01*
Y0003675D01*
X0006575D01*
X0007850Y0002550D02*
Y0000950D01*
X0009650D01*
Y0001650D01*
X0009550Y0001750D01*
X0009650Y0001850D01*
Y0002550D01*
X0007850D01*
X0006575Y0001175D02*
Y0002325D01*
X0005930D01*
Y0001175D01*
X0006575D01*
X0006925Y0002325D02*
Y0001175D01*
X0007570D01*
Y0002325D01*
X0006925D01*
X0003504Y0007384D02*
Y0007226D01*
X0003177D01*
Y0005604D01*
X0000823D01*
Y0010896D01*
X0003177D01*
Y0009274D01*
X0003504D01*
Y0009116D01*
X0003968D01*
Y0007384D01*
X0003504D01*
X0002923D01*
Y0007703D01*
X0001077Y0010655D02*
Y0009781D01*
X0001939D01*
Y0010140D01*
X0002061D01*
Y0009781D01*
X0002923D01*
Y0010655D01*
X0001077D01*
X0002923Y0008687D02*
X0002061D01*
Y0007813D01*
X0002923D01*
Y0008687D01*
Y0007384D02*
Y0006829D01*
X0002061D01*
Y0007703D01*
X0003031D01*
Y0008797D01*
X0002061D01*
Y0009671D01*
X0002923D01*
Y0009116D01*
X0003504D01*
X0001383Y0006156D02*
X0001633D01*
Y0006406D01*
X0001383D01*
Y0006156D01*
X0001442Y0006215D01*
X0001574D01*
Y0006347D01*
X0001442D01*
Y0006215D01*
X0002558Y0006347D02*
X0002617Y0006406D01*
Y0006156D01*
X0002558Y0006215D01*
Y0006347D01*
X0002426D01*
X0002367Y0006406D01*
Y0006156D01*
X0002426Y0006215D01*
Y0006347D01*
X0002367Y0006156D02*
X0002617D01*
X0001633D02*
X0001574Y0006215D01*
X0001633Y0006406D02*
X0001574Y0006347D01*
X0001383Y0006406D02*
X0001442Y0006347D01*
Y0010152D02*
X0001383Y0010093D01*
Y0010343D01*
X0001442Y0010284D01*
Y0010152D01*
X0001574D01*
X0001633Y0010093D01*
Y0010343D01*
X0001574Y0010284D01*
Y0010152D01*
X0001442Y0010284D02*
X0001574D01*
X0002558D02*
X0002617Y0010343D01*
Y0010093D01*
X0002558Y0010152D01*
Y0010284D01*
X0002426D01*
X0002367Y0010343D01*
Y0010093D01*
X0002426Y0010152D01*
Y0010284D01*
X0001383Y0010093D02*
X0001633D01*
X0002367D02*
X0002617D01*
X0002558Y0010152D02*
X0002426D01*
X0001383Y0010343D02*
X0001633D01*
X0002367D02*
X0002617D01*
X0001939Y0010140D02*
Y0010376D01*
X0002061D01*
Y0010140D01*
X0001939Y0010655D02*
Y0010376D01*
X0002061D02*
Y0010655D01*
X0001383Y0008125D02*
X0001633D01*
Y0008375D01*
X0001574Y0008316D01*
X0001442D01*
X0001383Y0008375D01*
Y0008125D01*
X0001442Y0008184D01*
X0001574D01*
Y0008316D01*
X0001442Y0008184D02*
Y0008316D01*
X0001633Y0008125D02*
X0001574Y0008184D01*
X0002558Y0008316D02*
X0002617Y0008375D01*
Y0008125D01*
X0002558Y0008184D01*
Y0008316D01*
X0002426D01*
X0002367Y0008375D01*
Y0008125D01*
X0002426Y0008184D01*
Y0008316D01*
X0002367Y0008125D02*
X0002617D01*
X0002558Y0008184D02*
X0002426D01*
X0001383Y0008375D02*
X0001633D01*
X0002367D02*
X0002617D01*
X0001383Y0007141D02*
X0001633D01*
Y0007391D01*
X0001574Y0007332D01*
X0001442D01*
X0001383Y0007391D01*
Y0007141D01*
X0001442Y0007200D01*
X0001574D01*
Y0007332D01*
X0001442Y0007200D02*
Y0007332D01*
X0001633Y0007141D02*
X0001574Y0007200D01*
X0002558Y0007332D02*
X0002617Y0007391D01*
Y0007141D01*
X0002558Y0007200D01*
Y0007332D01*
X0002426D01*
X0002367Y0007391D01*
Y0007141D01*
X0002426Y0007200D01*
Y0007332D01*
X0002367Y0007141D02*
X0002617D01*
X0007575Y0003675D02*
Y0004825D01*
X0006930D01*
Y0003675D01*
X0007575D01*
X0005925Y0003575D02*
Y0002425D01*
X0006570D01*
Y0003575D01*
X0005925D01*
X0002558Y0007200D02*
X0002426D01*
X0001383Y0007391D02*
X0001633D01*
X0002367D02*
X0002617D01*
X0001383Y0009109D02*
X0001633D01*
Y0009359D01*
X0001574Y0009300D01*
X0001442D01*
X0001383Y0009359D01*
Y0009109D01*
X0001442Y0009168D01*
X0001574D01*
Y0009300D01*
X0001442Y0009168D02*
Y0009300D01*
X0001633Y0009109D02*
X0001574Y0009168D01*
X0002558Y0009300D02*
X0002617Y0009359D01*
Y0009109D01*
X0002558Y0009168D01*
Y0009300D01*
X0002426D01*
X0002367Y0009359D01*
Y0009109D01*
X0002426Y0009168D01*
Y0009300D01*
X0002367Y0009109D02*
X0002617D01*
X0002558Y0009168D02*
X0002426D01*
X0001383Y0009359D02*
X0001633D01*
X0002367D02*
X0002617D01*
X0004224Y0007226D02*
X0004079D01*
Y0009274D01*
X0004224D01*
X0004303Y0009195D02*
Y0007290D01*
X0003504Y0007226D02*
X0004079D01*
X0003504Y0009274D02*
X0004079D01*
X0002923Y0008797D02*
Y0009116D01*
Y0006718D02*
X0002061D01*
Y0005844D01*
X0002923D01*
Y0006718D01*
X0001077Y0009671D02*
Y0008797D01*
X0001939D01*
Y0009671D01*
X0001077D01*
Y0008687D02*
Y0007813D01*
X0001939D01*
Y0008687D01*
X0001077D01*
Y0007703D02*
Y0006829D01*
X0001939D01*
Y0007703D01*
X0001077D01*
Y0006718D02*
Y0005844D01*
X0001939D01*
Y0006718D01*
X0001077D01*
X0002558Y0006215D02*
X0002426D01*
X0002367Y0006406D02*
X0002617D01*
X0008504Y0007384D02*
Y0007226D01*
X0008177D01*
Y0005604D01*
X0005823D01*
Y0010896D01*
X0008177D01*
Y0009274D01*
X0008504D01*
Y0009116D01*
X0008968D01*
Y0007384D01*
X0008504D01*
X0007923D01*
Y0007703D01*
X0006077Y0010655D02*
Y0009781D01*
X0006939D01*
Y0010140D01*
X0007061D01*
Y0009781D01*
X0007923D01*
Y0010655D01*
X0006077D01*
X0007923Y0008687D02*
X0007061D01*
Y0007813D01*
X0007923D01*
Y0008687D01*
Y0007384D02*
Y0006829D01*
X0007061D01*
Y0007703D01*
X0008031D01*
Y0008797D01*
X0007061D01*
Y0009671D01*
X0007923D01*
Y0009116D01*
X0008504D01*
X0006383Y0006156D02*
X0006633D01*
Y0006406D01*
X0006383D01*
Y0006156D01*
X0006442Y0006215D01*
X0006574D01*
Y0006347D01*
X0006442D01*
Y0006215D01*
X0007558Y0006347D02*
X0007617Y0006406D01*
Y0006156D01*
X0007558Y0006215D01*
Y0006347D01*
X0007426D01*
X0007367Y0006406D01*
Y0006156D01*
X0007426Y0006215D01*
Y0006347D01*
X0007367Y0006156D02*
X0007617D01*
X0006633D02*
X0006574Y0006215D01*
X0006633Y0006406D02*
X0006574Y0006347D01*
X0006383Y0006406D02*
X0006442Y0006347D01*
X0008950Y0004800D02*
X0010050D01*
Y0002700D01*
X0008950D01*
Y0004800D01*
X0007700D02*
X0008800D01*
Y0002700D01*
X0007700D01*
Y0004800D01*
G01X0009303Y0009195D02*
G03X0009224Y0009274I0000079J0000000D01*
G01X0009233Y0007220D02*
G03X0009303Y0007290I0000001J0000071D01*
G01X0004303Y0009195D02*
G03X0004224Y0009274I0000079J0000000D01*
G01X0004233Y0007220D02*
G03X0004303Y0007290I0000001J0000071D01*
G54D30*
G01X0003463Y0003167D02*
X0004880D01*
Y0000884D01*
X0003463D01*
Y0003167D01*
X0003529Y0002029D02*
Y0001470D01*
X0003530Y0002028D02*
X0003463D01*
X0003593Y0001957D02*
X0003463D01*
X0003656Y0001887D02*
X0003463D01*
X0003719Y0001816D02*
X0003463D01*
X0003773Y0001745D02*
X0003463D01*
X0003710Y0001674D02*
X0003463D01*
X0003647Y0001603D02*
X0003463D01*
X0003584Y0001533D02*
X0003463D01*
X0003521Y0001462D02*
X0003463D01*
Y0002104D02*
Y0002065D01*
Y0001396D01*
X0003778Y0001750D02*
X0003463Y0001396D01*
Y0002104D02*
X0003778Y0001750D01*
X0003741Y0001791D02*
Y0001709D01*
X0003670Y0001870D02*
Y0001629D01*
X0003600Y0001950D02*
Y0001550D01*
X0003856Y0000884D02*
Y0001041D01*
X0004722D01*
Y0003010D01*
X0003856D01*
Y0003167D01*
X0004752Y0013189D02*
X0006248D01*
Y0014291D01*
X0005894Y0014646D01*
X0005067D01*
X0004752Y0014331D01*
Y0013189D01*
X0004437Y0013110D02*
X0006563D01*
Y0016890D01*
X0004437D01*
Y0013110D01*
X0005109D02*
Y0012559D01*
X0005038Y0013110D02*
Y0012559D01*
X0004968Y0013110D02*
Y0012559D01*
X0004897Y0013110D02*
Y0012559D01*
X0006169Y0013050D02*
X0004831D01*
X0006169Y0012979D02*
X0004831D01*
X0006169Y0012908D02*
X0004831D01*
X0006169Y0012838D02*
X0004831D01*
X0006169Y0012767D02*
X0004831D01*
X0006169Y0012696D02*
X0004831D01*
X0005888Y0013110D02*
Y0012559D01*
X0005817Y0013110D02*
Y0012559D01*
X0005746Y0013110D02*
Y0012559D01*
X0005676Y0013110D02*
Y0012559D01*
X0005605Y0013110D02*
Y0012559D01*
X0005534Y0013110D02*
Y0012559D01*
X0005463Y0013110D02*
Y0012559D01*
X0005392Y0013110D02*
Y0012559D01*
X0005322Y0013110D02*
Y0012559D01*
X0005251Y0013110D02*
Y0012559D01*
X0005180Y0013110D02*
Y0012559D01*
X0006169Y0012625D02*
X0004831D01*
X0006169Y0013110D02*
X0004831D01*
X0006169D02*
Y0012559D01*
X0004831D01*
Y0013110D02*
Y0012559D01*
X0006100Y0013110D02*
Y0012559D01*
X0006030Y0013110D02*
Y0012559D01*
X0005959Y0013110D02*
Y0012559D01*
X0004752Y0015354D02*
X0006248D01*
Y0016811D01*
X0004752D01*
Y0015354D01*
M02*
