*
G04 Mass Parameters ***
*
G04 Image ***
*
%INC:\USERS\OSVALDO COLLALTI\DESKTOP\LAVORII IN CORSO\22-311-0\22-311-0.DRD*%
%ICAS*%
%MOIN*%
%IPPOS*%
%ASAXBY*%
G74*%FSLAN2X34Y34*%
*
G04 Aperture Definitions ***
*
%ADD10C,0.1299*%
%ADD11C,0.0394*%
%ADD12C,0.0590*%
%ADD13R,0.0590X0.0590*%
%ADD14C,0.0787*%
%ADD15C,0.0512*%
%ADD16R,0.0787X0.0787*%
%ADD17C,0.1200*%
%ADD18R,0.1200X0.1200*%
%ADD19R,0.0669X0.0669*%
%ADD20R,0.0500X0.0400*%
%ADD21R,0.0380X0.0320*%
%ADD22R,0.0710X0.0400*%
%ADD23C,0.0100*%
%ADD24C,0.0250*%
%ADD25C,0.0120*%
%ADD26C,0.0500*%
%ADD27C,0.1000*%
%ADD28C,0.0394*%
%ADD29C,0.0060*%
%ADD30C,0.0079*%
*
G04 Plot Data ***
*
G54D23*
G01X0024525Y-0017483D02*
X0024608Y-0017317D01*
Y-0017150D01*
X0024525Y-0016983D01*
X0024025D01*
X0023942Y-0017150D01*
Y-0017317D01*
X0024025Y-0017483D01*
X0024525D01*
X0024608Y-0017650D01*
Y-0017817D01*
X0024525Y-0017983D01*
X0024025D01*
X0023942Y-0017817D01*
Y-0017650D01*
X0024025Y-0017483D01*
X0023658Y-0017650D02*
X0022992D01*
X0023325Y-0016983D01*
X0023492D01*
Y-0017983D01*
X0012212D02*
X0011629D01*
Y-0016983D01*
X0011346Y-0017650D02*
X0010679D01*
X0011346Y-0017983D02*
Y-0017483D01*
X0011096Y-0016983D01*
X0010929D01*
X0010679Y-0017483D01*
Y-0017983D01*
X0010062D02*
Y-0016983D01*
X0010396D02*
X0009729D01*
X0008862Y-0017983D02*
X0008779Y-0017817D01*
Y-0017150D01*
X0008862Y-0016983D01*
X0009362D01*
X0009446Y-0017150D01*
Y-0017817D01*
X0009362Y-0017983D01*
X0008862D01*
X0008162D02*
Y-0016983D01*
X0008496D02*
X0007829D01*
X0032464Y-0016122D02*
Y-0015456D01*
X0032408Y-0016122D02*
X0032741D01*
X0032853Y-0015900D01*
Y-0015678D01*
X0032741Y-0015456D01*
X0032408D01*
X0032041Y-0015789D02*
X0031708D01*
X0032153Y-0016122D02*
X0031708D01*
Y-0015456D01*
X0032153D01*
X0031230Y-0016122D02*
Y-0015456D01*
X0031453D02*
X0031008D01*
X0030753Y-0015900D02*
X0030308D01*
X0030753Y-0016122D02*
Y-0015789D01*
X0030586Y-0015456D01*
X0030475D01*
X0030308Y-0015789D01*
Y-0016122D01*
X0030053D02*
X0029664D01*
Y-0015456D01*
X0028964Y-0015789D02*
X0029297D01*
X0029408Y-0015678D01*
Y-0015567D01*
X0029297Y-0015456D01*
X0028964D01*
Y-0016122D01*
X0028708Y-0015789D02*
X0028264D01*
X0028008Y-0015456D02*
Y-0016122D01*
X0027897Y-0016011D01*
X0027675Y-0015567D01*
X0027564Y-0015456D01*
Y-0016122D01*
X0026919D02*
X0026864Y-0016011D01*
Y-0015567D01*
X0026919Y-0015456D01*
X0027253D01*
X0027308Y-0015567D01*
Y-0016011D01*
X0027253Y-0016122D01*
X0026919D01*
X0026608Y-0015456D02*
Y-0016122D01*
X0026497Y-0016011D01*
X0026275Y-0015567D01*
X0026164Y-0015456D01*
Y-0016122D01*
X0024608Y-0015900D02*
X0024164D01*
X0024386Y-0015456D01*
X0024497D01*
Y-0016122D01*
X0010769D02*
Y-0015789D01*
X0010992Y-0016122D02*
Y-0015789D01*
X0010936Y-0015678D01*
X0010825D01*
X0010769Y-0015789D01*
X0010714Y-0015678D01*
X0010603D01*
X0010547Y-0015789D01*
Y-0016122D01*
X0010069D02*
Y-0015789D01*
X0010292Y-0016122D02*
Y-0015789D01*
X0010236Y-0015678D01*
X0010125D01*
X0010069Y-0015789D01*
X0010014Y-0015678D01*
X0009903D01*
X0009847Y-0015789D01*
Y-0016122D01*
X0008364D02*
X0008253Y-0016011D01*
X0008197Y-0015900D01*
Y-0015678D01*
X0008253Y-0015567D01*
X0008364Y-0015456D01*
X0008475D01*
X0008586Y-0015567D01*
X0008642Y-0015678D01*
Y-0015900D01*
X0008586Y-0016011D01*
X0008475Y-0016122D01*
X0008364D01*
X0007664D02*
X0007553Y-0016011D01*
X0007497Y-0015900D01*
Y-0015678D01*
X0007553Y-0015567D01*
X0007664Y-0015456D01*
X0007775D01*
X0007886Y-0015567D01*
X0007942Y-0015678D01*
Y-0015900D01*
X0007886Y-0016011D01*
X0007775Y-0016122D01*
X0007664D01*
X0006797Y-0016011D02*
X0006908Y-0016122D01*
X0007130D01*
X0007242Y-0016011D01*
Y-0015900D01*
X0007019Y-0015678D01*
X0007242Y-0015456D01*
X0006797D01*
X0006431Y-0016122D02*
X0006542D01*
Y-0016011D01*
X0006431D01*
Y-0016122D01*
X0005619Y-0016011D02*
X0005731Y-0016122D01*
X0005953D01*
X0006064Y-0016011D01*
Y-0015900D01*
X0005842Y-0015678D01*
X0006064Y-0015456D01*
X0005619D01*
X0024608Y-0014622D02*
X0024164D01*
X0024608Y-0014178D01*
Y-0014067D01*
X0024553Y-0013956D01*
X0024219D01*
X0024164Y-0014067D01*
X0010769Y-0014622D02*
Y-0014289D01*
X0010992Y-0014622D02*
Y-0014289D01*
X0010936Y-0014178D01*
X0010825D01*
X0010769Y-0014289D01*
X0010714Y-0014178D01*
X0010603D01*
X0010547Y-0014289D01*
Y-0014622D01*
X0010069D02*
Y-0014289D01*
X0010292Y-0014622D02*
Y-0014289D01*
X0010236Y-0014178D01*
X0010125D01*
X0010069Y-0014289D01*
X0010014Y-0014178D01*
X0009903D01*
X0009847Y-0014289D01*
Y-0014622D01*
X0008364D02*
X0008253Y-0014511D01*
X0008197Y-0014400D01*
Y-0014178D01*
X0008253Y-0014067D01*
X0008364Y-0013956D01*
X0008475D01*
X0008586Y-0014067D01*
X0008642Y-0014178D01*
Y-0014400D01*
X0008586Y-0014511D01*
X0008475Y-0014622D01*
X0008364D01*
X0007664D02*
X0007553Y-0014511D01*
X0007497Y-0014400D01*
Y-0014178D01*
X0007553Y-0014067D01*
X0007664Y-0013956D01*
X0007775D01*
X0007886Y-0014067D01*
X0007942Y-0014178D01*
Y-0014400D01*
X0007886Y-0014511D01*
X0007775Y-0014622D01*
X0007664D01*
X0006853Y-0014289D02*
X0007186D01*
X0007242Y-0014400D01*
Y-0014511D01*
X0007186Y-0014622D01*
X0006853D01*
X0006797Y-0014511D01*
Y-0014400D01*
X0007019Y-0013956D01*
X0006431Y-0014622D02*
X0006542D01*
Y-0014511D01*
X0006431D01*
Y-0014622D01*
X0006064D02*
X0005842D01*
X0005953D02*
Y-0013956D01*
X0005842Y-0014067D01*
X0024608Y-0012900D02*
X0024164D01*
X0024386Y-0012456D01*
X0024497D01*
Y-0013122D01*
X0010769D02*
Y-0012789D01*
X0010992Y-0013122D02*
Y-0012789D01*
X0010936Y-0012678D01*
X0010825D01*
X0010769Y-0012789D01*
X0010714Y-0012678D01*
X0010603D01*
X0010547Y-0012789D01*
Y-0013122D01*
X0010069D02*
Y-0012789D01*
X0010292Y-0013122D02*
Y-0012789D01*
X0010236Y-0012678D01*
X0010125D01*
X0010069Y-0012789D01*
X0010014Y-0012678D01*
X0009903D01*
X0009847Y-0012789D01*
Y-0013122D01*
X0008364D02*
X0008253Y-0013011D01*
X0008197Y-0012900D01*
Y-0012678D01*
X0008253Y-0012567D01*
X0008364Y-0012456D01*
X0008475D01*
X0008586Y-0012567D01*
X0008642Y-0012678D01*
Y-0012900D01*
X0008586Y-0013011D01*
X0008475Y-0013122D01*
X0008364D01*
X0007664D02*
X0007553Y-0013011D01*
X0007497Y-0012900D01*
Y-0012678D01*
X0007553Y-0012567D01*
X0007664Y-0012456D01*
X0007775D01*
X0007886Y-0012567D01*
X0007942Y-0012678D01*
Y-0012900D01*
X0007886Y-0013011D01*
X0007775Y-0013122D01*
X0007664D01*
X0007242Y-0012900D02*
X0006797D01*
X0007019Y-0012456D01*
X0007130D01*
Y-0013122D01*
X0006431D02*
X0006542D01*
Y-0013011D01*
X0006431D01*
Y-0013122D01*
X0006064D02*
X0005842D01*
X0005953D02*
Y-0012456D01*
X0005842Y-0012567D01*
X0032464Y-0011622D02*
Y-0010956D01*
X0032408Y-0011622D02*
X0032741D01*
X0032853Y-0011400D01*
Y-0011178D01*
X0032741Y-0010956D01*
X0032408D01*
X0032041Y-0011289D02*
X0031708D01*
X0032153Y-0011622D02*
X0031708D01*
Y-0010956D01*
X0032153D01*
X0031230Y-0011622D02*
Y-0010956D01*
X0031453D02*
X0031008D01*
X0030753Y-0011400D02*
X0030308D01*
X0030753Y-0011622D02*
Y-0011289D01*
X0030586Y-0010956D01*
X0030475D01*
X0030308Y-0011289D01*
Y-0011622D01*
X0030053D02*
X0029664D01*
Y-0010956D01*
X0028964Y-0011289D02*
X0029297D01*
X0029408Y-0011178D01*
Y-0011067D01*
X0029297Y-0010956D01*
X0028964D01*
Y-0011622D01*
X0028708Y-0011289D02*
X0028264D01*
X0028008Y-0010956D02*
Y-0011622D01*
X0027897Y-0011511D01*
X0027675Y-0011067D01*
X0027564Y-0010956D01*
Y-0011622D01*
X0026919D02*
X0026864Y-0011511D01*
Y-0011067D01*
X0026919Y-0010956D01*
X0027253D01*
X0027308Y-0011067D01*
Y-0011511D01*
X0027253Y-0011622D01*
X0026919D01*
X0026608Y-0010956D02*
Y-0011622D01*
X0026497Y-0011511D01*
X0026275Y-0011067D01*
X0026164Y-0010956D01*
Y-0011622D01*
X0024164Y-0011511D02*
X0024275Y-0011622D01*
X0024497D01*
X0024608Y-0011511D01*
Y-0011400D01*
X0024386Y-0011178D01*
X0024608Y-0010956D01*
X0024164D01*
X0010769Y-0011622D02*
Y-0011289D01*
X0010992Y-0011622D02*
Y-0011289D01*
X0010936Y-0011178D01*
X0010825D01*
X0010769Y-0011289D01*
X0010714Y-0011178D01*
X0010603D01*
X0010547Y-0011289D01*
Y-0011622D01*
X0010069D02*
Y-0011289D01*
X0010292Y-0011622D02*
Y-0011289D01*
X0010236Y-0011178D01*
X0010125D01*
X0010069Y-0011289D01*
X0010014Y-0011178D01*
X0009903D01*
X0009847Y-0011289D01*
Y-0011622D01*
X0008364D02*
X0008253Y-0011511D01*
X0008197Y-0011400D01*
Y-0011178D01*
X0008253Y-0011067D01*
X0008364Y-0010956D01*
X0008475D01*
X0008586Y-0011067D01*
X0008642Y-0011178D01*
Y-0011400D01*
X0008586Y-0011511D01*
X0008475Y-0011622D01*
X0008364D01*
X0007664D02*
X0007553Y-0011511D01*
X0007497Y-0011400D01*
Y-0011178D01*
X0007553Y-0011067D01*
X0007664Y-0010956D01*
X0007775D01*
X0007886Y-0011067D01*
X0007942Y-0011178D01*
Y-0011400D01*
X0007886Y-0011511D01*
X0007775Y-0011622D01*
X0007664D01*
X0006797Y-0011511D02*
X0006908Y-0011622D01*
X0007130D01*
X0007242Y-0011511D01*
Y-0011400D01*
X0007019Y-0011178D01*
X0007242Y-0010956D01*
X0006797D01*
X0006431Y-0011622D02*
X0006542D01*
Y-0011511D01*
X0006431D01*
Y-0011622D01*
X0006064D02*
X0005842D01*
X0005953D02*
Y-0010956D01*
X0005842Y-0011067D01*
X0024219Y-0009789D02*
X0024553D01*
X0024608Y-0009900D01*
Y-0010011D01*
X0024553Y-0010122D01*
X0024219D01*
X0024164Y-0010011D01*
Y-0009900D01*
X0024386Y-0009456D01*
X0023908Y-0010122D02*
X0023464D01*
X0023908Y-0009678D01*
Y-0009567D01*
X0023853Y-0009456D01*
X0023519D01*
X0023464Y-0009567D01*
X0010769Y-0010122D02*
Y-0009789D01*
X0010992Y-0010122D02*
Y-0009789D01*
X0010936Y-0009678D01*
X0010825D01*
X0010769Y-0009789D01*
X0010714Y-0009678D01*
X0010603D01*
X0010547Y-0009789D01*
Y-0010122D01*
X0010069D02*
Y-0009789D01*
X0010292Y-0010122D02*
Y-0009789D01*
X0010236Y-0009678D01*
X0010125D01*
X0010069Y-0009789D01*
X0010014Y-0009678D01*
X0009903D01*
X0009847Y-0009789D01*
Y-0010122D01*
X0008364D02*
X0008253Y-0010011D01*
X0008197Y-0009900D01*
Y-0009678D01*
X0008253Y-0009567D01*
X0008364Y-0009456D01*
X0008475D01*
X0008586Y-0009567D01*
X0008642Y-0009678D01*
Y-0009900D01*
X0008586Y-0010011D01*
X0008475Y-0010122D01*
X0008364D01*
X0007664D02*
X0007553Y-0010011D01*
X0007497Y-0009900D01*
Y-0009678D01*
X0007553Y-0009567D01*
X0007664Y-0009456D01*
X0007775D01*
X0007886Y-0009567D01*
X0007942Y-0009678D01*
Y-0009900D01*
X0007886Y-0010011D01*
X0007775Y-0010122D01*
X0007664D01*
X0007242D02*
X0006797D01*
X0007242Y-0009678D01*
Y-0009567D01*
X0007186Y-0009456D01*
X0006853D01*
X0006797Y-0009567D01*
X0006431Y-0010122D02*
X0006542D01*
Y-0010011D01*
X0006431D01*
Y-0010122D01*
X0006064D02*
X0005842D01*
X0005953D02*
Y-0009456D01*
X0005842Y-0009567D01*
X0024164Y-0008511D02*
X0024219Y-0008622D01*
X0024553D01*
X0024608Y-0008511D01*
Y-0008289D01*
X0024497Y-0008178D01*
X0024164D01*
Y-0007956D01*
X0024608D01*
X0010769Y-0008622D02*
Y-0008289D01*
X0010992Y-0008622D02*
Y-0008289D01*
X0010936Y-0008178D01*
X0010825D01*
X0010769Y-0008289D01*
X0010714Y-0008178D01*
X0010603D01*
X0010547Y-0008289D01*
Y-0008622D01*
X0010069D02*
Y-0008289D01*
X0010292Y-0008622D02*
Y-0008289D01*
X0010236Y-0008178D01*
X0010125D01*
X0010069Y-0008289D01*
X0010014Y-0008178D01*
X0009903D01*
X0009847Y-0008289D01*
Y-0008622D01*
X0008364D02*
X0008253Y-0008511D01*
X0008197Y-0008400D01*
Y-0008178D01*
X0008253Y-0008067D01*
X0008364Y-0007956D01*
X0008475D01*
X0008586Y-0008067D01*
X0008642Y-0008178D01*
Y-0008400D01*
X0008586Y-0008511D01*
X0008475Y-0008622D01*
X0008364D01*
X0007664D02*
X0007553Y-0008511D01*
X0007497Y-0008400D01*
Y-0008178D01*
X0007553Y-0008067D01*
X0007664Y-0007956D01*
X0007775D01*
X0007886Y-0008067D01*
X0007942Y-0008178D01*
Y-0008400D01*
X0007886Y-0008511D01*
X0007775Y-0008622D01*
X0007664D01*
X0007186Y-0008289D02*
X0006853D01*
X0006797Y-0008178D01*
Y-0008067D01*
X0006853Y-0007956D01*
X0007186D01*
X0007242Y-0008067D01*
Y-0008178D01*
X0007019Y-0008622D01*
X0006431D02*
X0006542D01*
Y-0008511D01*
X0006431D01*
Y-0008622D01*
X0005786D02*
X0005675Y-0008511D01*
X0005619Y-0008400D01*
Y-0008178D01*
X0005675Y-0008067D01*
X0005786Y-0007956D01*
X0005897D01*
X0006008Y-0008067D01*
X0006064Y-0008178D01*
Y-0008400D01*
X0006008Y-0008511D01*
X0005897Y-0008622D01*
X0005786D01*
X0024608Y-0006900D02*
X0024164D01*
X0024386Y-0006456D01*
X0024497D01*
Y-0007122D01*
X0010769D02*
Y-0006789D01*
X0010992Y-0007122D02*
Y-0006789D01*
X0010936Y-0006678D01*
X0010825D01*
X0010769Y-0006789D01*
X0010714Y-0006678D01*
X0010603D01*
X0010547Y-0006789D01*
Y-0007122D01*
X0010069D02*
Y-0006789D01*
X0010292Y-0007122D02*
Y-0006789D01*
X0010236Y-0006678D01*
X0010125D01*
X0010069Y-0006789D01*
X0010014Y-0006678D01*
X0009903D01*
X0009847Y-0006789D01*
Y-0007122D01*
X0008364D02*
X0008253Y-0007011D01*
X0008197Y-0006900D01*
Y-0006678D01*
X0008253Y-0006567D01*
X0008364Y-0006456D01*
X0008475D01*
X0008586Y-0006567D01*
X0008642Y-0006678D01*
Y-0006900D01*
X0008586Y-0007011D01*
X0008475Y-0007122D01*
X0008364D01*
X0007664D02*
X0007553Y-0007011D01*
X0007497Y-0006900D01*
Y-0006678D01*
X0007553Y-0006567D01*
X0007664Y-0006456D01*
X0007775D01*
X0007886Y-0006567D01*
X0007942Y-0006678D01*
Y-0006900D01*
X0007886Y-0007011D01*
X0007775Y-0007122D01*
X0007664D01*
X0006797Y-0007011D02*
X0006908Y-0007122D01*
X0007130D01*
X0007242Y-0007011D01*
Y-0006900D01*
X0007019Y-0006678D01*
X0007242Y-0006456D01*
X0006797D01*
X0006431Y-0007122D02*
X0006542D01*
Y-0007011D01*
X0006431D01*
Y-0007122D01*
X0005786D02*
X0005675Y-0007011D01*
X0005619Y-0006900D01*
Y-0006678D01*
X0005675Y-0006567D01*
X0005786Y-0006456D01*
X0005897D01*
X0006008Y-0006567D01*
X0006064Y-0006678D01*
Y-0006900D01*
X0006008Y-0007011D01*
X0005897Y-0007122D01*
X0005786D01*
X0033012Y-0004983D02*
X0032512D01*
X0033179Y-0005483D02*
X0032512D01*
Y-0004483D01*
X0033179D01*
X0031896Y-0005483D02*
Y-0004483D01*
X0032229D02*
X0031562D01*
X0030696Y-0005483D02*
X0030612Y-0005317D01*
Y-0004650D01*
X0030696Y-0004483D01*
X0031196D01*
X0031279Y-0004650D01*
Y-0005317D01*
X0031196Y-0005483D01*
X0030696D01*
X0030329Y-0004483D02*
Y-0005483D01*
X0030162Y-0005317D01*
X0029829Y-0004650D01*
X0029662Y-0004483D01*
Y-0005483D01*
X0023825D02*
Y-0004983D01*
X0024158Y-0004483D02*
X0023908Y-0004983D01*
X0023742D01*
X0023492Y-0004483D01*
X0022875Y-0005483D02*
Y-0004483D01*
X0023208D02*
X0022542D01*
X0021925Y-0005150D02*
X0022258Y-0005483D01*
X0021592Y-0005317D02*
X0021675Y-0005483D01*
X0022008D01*
X0022092Y-0005317D01*
X0022258Y-0005150D01*
Y-0004650D01*
X0022175Y-0004483D01*
X0021675D01*
X0021592Y-0004650D01*
Y-0005317D01*
X0017308Y-0005483D02*
X0016725D01*
Y-0004483D01*
X0015858Y-0005483D02*
X0015775Y-0005317D01*
Y-0004650D01*
X0015858Y-0004483D01*
X0016358D01*
X0016442Y-0004650D01*
Y-0005317D01*
X0016358Y-0005483D01*
X0015858D01*
X0015158D02*
Y-0004483D01*
X0015492D02*
X0014825D01*
X0009487Y-0005483D02*
Y-0004483D01*
X0009321Y-0004650D01*
X0009154Y-0004983D01*
X0008987Y-0004650D01*
X0008821Y-0004483D01*
Y-0005483D01*
X0008537Y-0005150D02*
X0007871D01*
X0008537Y-0005483D02*
Y-0004983D01*
X0008287Y-0004483D01*
X0008121D01*
X0007871Y-0004983D01*
Y-0005483D01*
X0007587D02*
X0007254D01*
X0007421D02*
Y-0004483D01*
X0007587D02*
X0007254D01*
X0006221Y-0005483D02*
Y-0004483D01*
X0006137Y-0005483D02*
X0006637D01*
X0006804Y-0005150D01*
Y-0004817D01*
X0006637Y-0004483D01*
X0006137D01*
X0003050Y-0005483D02*
Y-0004483D01*
X0002883Y-0004650D01*
X0002717Y-0004983D01*
X0002550Y-0004650D01*
X0002383Y-0004483D01*
Y-0005483D01*
X0001767D02*
Y-0004983D01*
X0002100Y-0004483D02*
X0001850Y-0004983D01*
X0001683D01*
X0001433Y-0004483D01*
X0001150Y-0004650D02*
X0001067Y-0004483D01*
X0000567D01*
X0000483Y-0004650D01*
Y-0004817D01*
X0000567Y-0004983D01*
X0001067D01*
X0001150Y-0005150D01*
Y-0005317D01*
X0001067Y-0005483D01*
X0000567D01*
X0000483Y-0005317D01*
X0023337Y-0003483D02*
Y-0002483D01*
X0023671D02*
X0023004D01*
X0022471Y-0002983D02*
X0022721Y-0003483D01*
X0022054Y-0002983D02*
X0022554D01*
X0022721Y-0002817D01*
Y-0002650D01*
X0022554Y-0002483D01*
X0022054D01*
Y-0003483D01*
X0021771Y-0003150D02*
X0021104D01*
X0021771Y-0003483D02*
Y-0002983D01*
X0021521Y-0002483D01*
X0021354D01*
X0021104Y-0002983D01*
Y-0003483D01*
X0020821Y-0002983D02*
X0020154D01*
X0020821Y-0003483D02*
Y-0002483D01*
X0020154Y-0003483D02*
Y-0002483D01*
X0019871Y-0003317D02*
X0019787Y-0003483D01*
X0019287D01*
X0019204Y-0003317D01*
Y-0002650D01*
X0019287Y-0002483D01*
X0019787D01*
X0019871Y-0002650D01*
X0017596Y-0003483D02*
X0017012D01*
Y-0002483D01*
X0016729Y-0003483D02*
X0016146D01*
Y-0002483D01*
X0015862Y-0003483D02*
X0015529D01*
X0015696D02*
Y-0002483D01*
X0015862D02*
X0015529D01*
X0014829Y-0002983D02*
X0015079Y-0003483D01*
X0014412Y-0002983D02*
X0014912D01*
X0015079Y-0002817D01*
Y-0002650D01*
X0014912Y-0002483D01*
X0014412D01*
Y-0003483D01*
X0013546D02*
Y-0002483D01*
X0013462Y-0003483D02*
X0013962D01*
X0014129Y-0003150D01*
Y-0002817D01*
X0013962Y-0002483D01*
X0013462D01*
X0011300Y0005250D02*
X0010800Y0004750D01*
X0011300D02*
X0010800Y0005250D01*
X0013900Y0004900D02*
X0013400Y0004400D01*
X0013900D02*
X0013400Y0004900D01*
X0010100Y0002000D02*
X0009600Y0001500D01*
X0010100D02*
X0009600Y0002000D01*
X0011250Y0004750D02*
X0010750Y0004250D01*
X0011250D02*
X0010750Y0004750D01*
X0001725Y-0015750D02*
X0001475Y-0016000D01*
X0001975D02*
X0001725Y-0015750D01*
X0001475Y-0016000D02*
X0001975D01*
X0001475Y-0014150D02*
Y-0014400D01*
X0001725Y-0014150D02*
X0001475D01*
X0001725Y-0014650D02*
Y-0014150D01*
X0001975Y-0014650D02*
X0001725D01*
X0001975Y-0014400D02*
Y-0014650D01*
X0001475Y-0014400D02*
X0001975D01*
X0001475Y-0012650D02*
Y-0013150D01*
X0001975Y-0012650D02*
X0001475D01*
X0001975Y-0013150D02*
Y-0012650D01*
X0001475Y-0013150D02*
X0001975D01*
Y-0012900D02*
X0001475D01*
X0001725Y-0012650D02*
Y-0013150D01*
X0001475Y-0011150D02*
Y-0011650D01*
X0001975Y-0011150D02*
X0001475D01*
X0001975Y-0011650D02*
Y-0011150D01*
X0001475Y-0011650D02*
X0001975D01*
Y-0011150D02*
X0001475Y-0011650D01*
X0001975D02*
X0001475Y-0011150D01*
X0001725Y-0009650D02*
X0001475Y-0009900D01*
X0001975D02*
X0001725Y-0009650D01*
Y-0010150D02*
X0001975Y-0009900D01*
X0001475D02*
X0001725Y-0010150D01*
X0001975Y-0008400D02*
X0001475D01*
X0001725Y-0008150D02*
Y-0008650D01*
X0001975Y-0006650D02*
X0001475Y-0007150D01*
X0001975D02*
X0001475Y-0006650D01*
X0037200Y-0018700D02*
X-0000150D01*
X0037150Y-0018650D02*
X-0000100D01*
X0037150Y-0016650D02*
X-0000100D01*
X0037150Y-0015150D02*
X-0000100D01*
X0037150Y-0013650D02*
X-0000100D01*
X0037150Y-0012150D02*
X-0000100D01*
X0037150Y-0010650D02*
X-0000100D01*
X0037150Y-0009150D02*
X-0000100D01*
X0037150Y-0007650D02*
X-0000100D01*
X0037150Y-0006150D02*
X-0000100D01*
X0037150Y-0006100D02*
X-0000100D01*
X0037150Y-0004150D02*
X-0000100D01*
X0037150Y-0004100D02*
X-0000100D01*
X0037150Y-0002150D02*
X-0000100D01*
X0037200Y-0002100D02*
X-0000150D01*
X0037200Y-0018650D02*
Y-0002150D01*
X0037150Y-0018650D02*
Y-0002150D01*
X0025608Y-0018650D02*
Y-0004150D01*
X0020058Y-0018650D02*
Y-0004150D01*
X0011992Y-0016650D02*
Y-0004150D01*
X0003600Y-0016650D02*
Y-0004150D01*
X0003550Y-0016650D02*
Y-0004150D01*
X-0000150Y-0018650D02*
Y-0002150D01*
X-0000100Y-0018650D02*
Y-0002150D01*
X0006508Y0010468D02*
X0006258Y0010218D01*
X0006758D02*
X0006508Y0010468D01*
Y0009968D02*
X0006758Y0010218D01*
X0006258D02*
X0006508Y0009968D01*
Y0009484D02*
X0006258Y0009234D01*
X0006758D02*
X0006508Y0009484D01*
Y0008984D02*
X0006758Y0009234D01*
X0006258D02*
X0006508Y0008984D01*
Y0008500D02*
X0006258Y0008250D01*
X0006758D02*
X0006508Y0008500D01*
Y0008000D02*
X0006758Y0008250D01*
X0006258D02*
X0006508Y0008000D01*
Y0007516D02*
X0006258Y0007266D01*
X0006758D02*
X0006508Y0007516D01*
Y0007016D02*
X0006758Y0007266D01*
X0006258D02*
X0006508Y0007016D01*
Y0006531D02*
X0006258Y0006281D01*
X0006758D02*
X0006508Y0006531D01*
Y0006031D02*
X0006758Y0006281D01*
X0006258D02*
X0006508Y0006031D01*
X0007242Y0006531D02*
Y0006281D01*
X0007492Y0006531D02*
X0007242D01*
X0007492Y0006031D02*
Y0006531D01*
X0007742Y0006031D02*
X0007492D01*
X0007742Y0006281D02*
Y0006031D01*
X0007242Y0006281D02*
X0007742D01*
X0007770Y0007024D02*
Y0006524D01*
X0008270Y0007024D02*
X0007770D01*
X0008270Y0006524D02*
Y0007024D01*
X0007770Y0006524D02*
X0008270D01*
Y0007024D02*
X0007770Y0006524D01*
X0008270D02*
X0007770Y0007024D01*
X0007492Y0010468D02*
X0007242Y0010218D01*
X0007742D02*
X0007492Y0010468D01*
Y0009968D02*
X0007742Y0010218D01*
X0007242D02*
X0007492Y0009968D01*
Y0009484D02*
X0007242Y0009234D01*
X0007742D02*
X0007492Y0009484D01*
Y0008984D02*
X0007742Y0009234D01*
X0007242D02*
X0007492Y0008984D01*
Y0008500D02*
X0007242Y0008250D01*
X0007742D02*
X0007492Y0008500D01*
Y0008000D02*
X0007742Y0008250D01*
X0007242D02*
X0007492Y0008000D01*
Y0007516D02*
X0007242Y0007266D01*
X0007742D02*
X0007492Y0007516D01*
Y0007016D02*
X0007742Y0007266D01*
X0007242D02*
X0007492Y0007016D01*
X0004500Y0001750D02*
X0004000D01*
X0004250Y0002000D02*
Y0001500D01*
X0004500Y0002537D02*
X0004000D01*
X0004250Y0002787D02*
Y0002287D01*
X0001508Y0010468D02*
X0001258Y0010218D01*
X0001758D02*
X0001508Y0010468D01*
Y0009968D02*
X0001758Y0010218D01*
X0001258D02*
X0001508Y0009968D01*
Y0009484D02*
X0001258Y0009234D01*
X0001758D02*
X0001508Y0009484D01*
Y0008984D02*
X0001758Y0009234D01*
X0001258D02*
X0001508Y0008984D01*
Y0008500D02*
X0001258Y0008250D01*
X0001758D02*
X0001508Y0008500D01*
Y0008000D02*
X0001758Y0008250D01*
X0001258D02*
X0001508Y0008000D01*
Y0007516D02*
X0001258Y0007266D01*
X0001758D02*
X0001508Y0007516D01*
Y0007016D02*
X0001758Y0007266D01*
X0001258D02*
X0001508Y0007016D01*
Y0006531D02*
X0001258Y0006281D01*
X0001758D02*
X0001508Y0006531D01*
Y0006031D02*
X0001758Y0006281D01*
X0001258D02*
X0001508Y0006031D01*
X0002242Y0006531D02*
Y0006281D01*
X0002492Y0006531D02*
X0002242D01*
X0002492Y0006031D02*
Y0006531D01*
X0002742Y0006031D02*
X0002492D01*
X0002742Y0006281D02*
Y0006031D01*
X0002242Y0006281D02*
X0002742D01*
X0002770Y0007024D02*
Y0006524D01*
X0003270Y0007024D02*
X0002770D01*
X0003270Y0006524D02*
Y0007024D01*
X0002770Y0006524D02*
X0003270D01*
Y0007024D02*
X0002770Y0006524D01*
X0003270D02*
X0002770Y0007024D01*
X0002492Y0010468D02*
X0002242Y0010218D01*
X0002742D02*
X0002492Y0010468D01*
Y0009968D02*
X0002742Y0010218D01*
X0002242D02*
X0002492Y0009968D01*
Y0009484D02*
X0002242Y0009234D01*
X0002742D02*
X0002492Y0009484D01*
Y0008984D02*
X0002742Y0009234D01*
X0002242D02*
X0002492Y0008984D01*
Y0008500D02*
X0002242Y0008250D01*
X0002742D02*
X0002492Y0008500D01*
Y0008000D02*
X0002742Y0008250D01*
X0002242D02*
X0002492Y0008000D01*
Y0007516D02*
X0002242Y0007266D01*
X0002742D02*
X0002492Y0007516D01*
Y0007016D02*
X0002742Y0007266D01*
X0002242D02*
X0002492Y0007016D01*
X0009750Y0016333D02*
Y0015833D01*
X0010250Y0016333D02*
X0009750D01*
X0010250Y0015833D02*
Y0016333D01*
X0009750Y0015833D02*
X0010250D01*
Y0016083D02*
X0009750D01*
X0010000Y0016333D02*
Y0015833D01*
X0009750Y0014167D02*
Y0013667D01*
X0010250Y0014167D02*
X0009750D01*
X0010250Y0013667D02*
Y0014167D01*
X0009750Y0013667D02*
X0010250D01*
Y0013917D02*
X0009750D01*
X0010000Y0014167D02*
Y0013667D01*
X0005250Y0016333D02*
Y0015833D01*
X0005750Y0016333D02*
X0005250D01*
X0005750Y0015833D02*
Y0016333D01*
X0005250Y0015833D02*
X0005750D01*
Y0016083D02*
X0005250D01*
X0005500Y0016333D02*
Y0015833D01*
X0005250Y0014167D02*
Y0013667D01*
X0005750Y0014167D02*
X0005250D01*
X0005750Y0013667D02*
Y0014167D01*
X0005250Y0013667D02*
X0005750D01*
Y0013917D02*
X0005250D01*
X0005500Y0014167D02*
Y0013667D01*
X0011508Y0007024D02*
X0011258Y0006774D01*
X0011758D02*
X0011508Y0007024D01*
Y0006524D02*
X0011758Y0006774D01*
X0011258D02*
X0011508Y0006524D01*
Y0008008D02*
X0011258Y0007758D01*
X0011758D02*
X0011508Y0008008D01*
Y0007508D02*
X0011758Y0007758D01*
X0011258D02*
X0011508Y0007508D01*
Y0008992D02*
X0011258Y0008742D01*
X0011758D02*
X0011508Y0008992D01*
Y0008492D02*
X0011758Y0008742D01*
X0011258D02*
X0011508Y0008492D01*
Y0009976D02*
X0011258Y0009726D01*
X0011758D02*
X0011508Y0009976D01*
Y0009476D02*
X0011758Y0009726D01*
X0011258D02*
X0011508Y0009476D01*
X0012492Y0009976D02*
X0012242Y0009726D01*
X0012742D02*
X0012492Y0009976D01*
Y0009476D02*
X0012742Y0009726D01*
X0012242D02*
X0012492Y0009476D01*
X0012770Y0008500D02*
Y0008000D01*
X0013270Y0008500D02*
X0012770D01*
X0013270Y0008000D02*
Y0008500D01*
X0012770Y0008000D02*
X0013270D01*
Y0008500D02*
X0012770Y0008000D01*
X0013270D02*
X0012770Y0008500D01*
X0012492Y0007024D02*
X0012242Y0006774D01*
X0012742D02*
X0012492Y0007024D01*
Y0006524D02*
X0012742Y0006774D01*
X0012242D02*
X0012492Y0006524D01*
Y0008008D02*
X0012242Y0007758D01*
X0012742D02*
X0012492Y0008008D01*
Y0007508D02*
X0012742Y0007758D01*
X0012242D02*
X0012492Y0007508D01*
Y0008992D02*
X0012242Y0008742D01*
X0012742D02*
X0012492Y0008992D01*
Y0008492D02*
X0012742Y0008742D01*
X0012242D02*
X0012492Y0008492D01*
X0011500Y0003250D02*
X0011000D01*
X0011250Y0003500D02*
Y0003000D01*
X0011500Y0002463D02*
X0011000D01*
X0011250Y0002713D02*
Y0002213D01*
X0011500Y0001675D02*
X0011000D01*
X0011250Y0001925D02*
Y0001425D01*
X0013779Y0002118D02*
X0013529Y0001868D01*
X0014029D02*
X0013779Y0002118D01*
X0013529Y0001868D02*
X0014029D01*
X0001968Y0002118D02*
X0001718Y0001868D01*
X0002218D02*
X0001968Y0002118D01*
X0001718Y0001868D02*
X0002218D01*
X0013779Y0015898D02*
X0013529Y0015648D01*
X0014029D02*
X0013779Y0015898D01*
X0013529Y0015648D02*
X0014029D01*
X0001968Y0015898D02*
X0001718Y0015648D01*
X0002218D02*
X0001968Y0015898D01*
X0001718Y0015648D02*
X0002218D01*
G54D26*
G01X0003500Y0000000D02*
X0015747D01*
Y0017715D01*
X0000000D01*
Y0000000D01*
X0003500D01*
M02*
