*
G04 Mass Parameters ***
*
G04 Image ***
*
%INC:\USERS\OSVALDO COLLALTI\DESKTOP\LAVORII IN CORSO\22-311-0\22-311-0.BOT*%
%ICAS*%
%MOIN*%
%IPPOS*%
%ASAXBY*%
G74*%FSLAN2X34Y34*%
*
G04 Aperture Definitions ***
*
%ADD10C,0.1299*%
%ADD11C,0.0394*%
%ADD12C,0.0590*%
%ADD13R,0.0590X0.0590*%
%ADD14C,0.0787*%
%ADD15C,0.0512*%
%ADD16R,0.0787X0.0787*%
%ADD17C,0.1200*%
%ADD18R,0.1200X0.1200*%
%ADD19R,0.0669X0.0669*%
%ADD20R,0.0500X0.0400*%
%ADD21R,0.0380X0.0320*%
%ADD22R,0.0710X0.0400*%
%ADD23C,0.0100*%
%ADD24C,0.0250*%
%ADD25C,0.0120*%
%ADD26C,0.0500*%
%ADD27C,0.1000*%
%ADD28C,0.0394*%
%ADD29C,0.0060*%
*
G04 Plot Data ***
*
G54D23*
G01X0014000Y0004463D02*
Y0003650D01*
X0006080Y0005440D02*
Y0000550D01*
X0015100Y0006220D02*
X0013710D01*
X0013190Y0003822D02*
Y0003650D01*
X0012020Y0003740D02*
Y0003650D01*
X0001084Y0006850D02*
X0000500D01*
X0013190Y0004772D02*
Y0004558D01*
X0003380Y0006495D02*
Y0005761D01*
X0013550Y0004182D02*
Y0003650D01*
X0015100Y0004150D02*
X0013518D01*
X0010400Y0003282D02*
Y0000550D01*
X0012990Y0005860D02*
X0008027D01*
X0012990Y0006040D02*
X0009078D01*
X0010670Y0007498D02*
Y0005114D01*
X0015100Y0005320D02*
X0013697D01*
X0012000Y0002800D02*
X0011745D01*
X0013640Y0004253D02*
Y0003650D01*
X0013254Y0004622D02*
X0012892Y0004260D01*
X0010760Y0003642D02*
Y0002533D01*
X0003290Y0005240D02*
Y0003900D01*
X0009590Y0006522D02*
Y0003100D01*
X0003920Y0001255D02*
Y0000550D01*
X0000931Y0010360D02*
X0000500D01*
X0009534Y0001990D02*
X0004745D01*
X0004100Y0001255D02*
Y0000550D01*
X0001940Y0005874D02*
Y0003900D01*
X0001850Y0005796D02*
Y0003900D01*
X0001760Y0005744D02*
Y0003900D01*
X0001490Y0005688D02*
Y0003900D01*
X0011120Y0001198D02*
Y0000550D01*
X0010850Y0001384D02*
Y0000550D01*
X0003850Y0002245D02*
X0003755D01*
X0004460Y0001255D02*
Y0000550D01*
X0004280Y0001255D02*
Y0000550D01*
X0001310Y0005721D02*
Y0003900D01*
X0007070Y0005494D02*
Y0000550D01*
X0003764Y0002440D02*
X0003400D01*
X0003650Y0005240D02*
Y0000550D01*
X0003755Y0002170D02*
X0003400D01*
X0003755Y0002080D02*
X0003400D01*
X0003755Y0001990D02*
X0003400D01*
X0003755Y0001900D02*
X0003400D01*
X0013052Y0004420D02*
X0012838D01*
X0007912Y0007685D02*
X0007492Y0007266D01*
X0007072Y0007685D02*
X0007492Y0007266D01*
X0007912Y0008670D02*
X0007492Y0008250D01*
X0007072Y0007830D02*
X0007492Y0008250D01*
X0007072Y0008670D02*
X0007492Y0008250D01*
X0007912Y0007830D02*
X0007492Y0008250D01*
X0006927Y0007685D02*
X0006508Y0007266D01*
X0006088Y0006846D02*
X0006508Y0007266D01*
X0006088Y0007685D02*
X0006508Y0007266D01*
X0009500Y0012400D02*
Y0007168D01*
X0006927Y0008670D02*
X0006508Y0008250D01*
X0006088Y0007830D02*
X0006508Y0008250D01*
X0006088Y0008670D02*
X0006508Y0008250D01*
X0006927Y0007830D02*
X0006508Y0008250D01*
X0004600Y0002887D02*
X0004250Y0002537D01*
X0003902Y0002890D02*
X0003400D01*
X0003900Y0002887D02*
X0004250Y0002537D01*
X0009590Y0002890D02*
X0004597D01*
X0002912Y0007685D02*
X0002492Y0007266D01*
X0002072Y0007685D02*
X0002492Y0007266D01*
X0002912Y0008670D02*
X0002492Y0008250D01*
X0002072Y0007830D02*
X0002492Y0008250D01*
X0002072Y0008670D02*
X0002492Y0008250D01*
X0002912Y0007830D02*
X0002492Y0008250D01*
X0001927Y0007685D02*
X0001508Y0007266D01*
X0001088Y0006846D02*
X0001508Y0007266D01*
X0001088Y0007685D02*
X0001508Y0007266D01*
X0001011Y0006940D02*
X0000500D01*
X0001927Y0008670D02*
X0001508Y0008250D01*
X0001088Y0007830D02*
X0001508Y0008250D01*
X0001088Y0008670D02*
X0001508Y0008250D01*
X0001927Y0007830D02*
X0001508Y0008250D01*
X0011927Y0007193D02*
X0011508Y0006774D01*
X0011088Y0006354D02*
X0011508Y0006774D01*
X0011088Y0007193D02*
X0011508Y0006774D01*
X0011927Y0006354D02*
X0011508Y0006774D01*
X0011600Y0002025D02*
X0011250Y0001675D01*
X0010900Y0001325D02*
X0011250Y0001675D01*
X0010900Y0002025D02*
X0011250Y0001675D01*
X0007340Y0012400D02*
Y0010792D01*
X0012000Y0000730D02*
X0003400D01*
X0012000Y0000640D02*
X0003400D01*
X0015100Y0005230D02*
X0013647D01*
X0013142Y0004510D02*
X0012928D01*
X0011570Y0006183D02*
Y0005260D01*
X0010815Y0005320D02*
X0005937D01*
X0011480Y0006180D02*
Y0005260D01*
X0012990Y0006310D02*
X0012863D01*
X0015100D02*
X0013710D01*
X0015100Y0003790D02*
X0013153D01*
X0012990Y0006400D02*
X0012953D01*
X0014630Y0012400D02*
Y0003650D01*
X0012990Y0006450D02*
Y0005758D01*
X0012114Y0007300D02*
X0011886D01*
X0012278Y0006220D02*
X0011722D01*
X0010566Y0004184D02*
X0009668Y0003286D01*
X0012892Y0004260D02*
X0012650D01*
X0013460Y0004092D02*
Y0003650D01*
X0001310Y0012400D02*
Y0010778D01*
X0001400Y0012400D02*
Y0010802D01*
X0015100Y0008920D02*
X0013661D01*
X0015100Y0007570D02*
X0013710D01*
X0005961Y0010450D02*
X0003038D01*
X0015100Y0004600D02*
X0014043D01*
X0015100Y0004690D02*
X0014044D01*
X0010130Y0001469D02*
Y0000550D01*
X0015100Y0004870D02*
X0013980D01*
X0013622Y0004254D02*
X0013186Y0003818D01*
X0013460Y0005042D02*
Y0004998D01*
X0013550Y0005132D02*
Y0005034D01*
X0014090Y0012400D02*
Y0003650D01*
X0013370Y0004002D02*
Y0003650D01*
X0015100Y0006400D02*
X0013710D01*
X0010130Y0003012D02*
Y0002031D01*
Y0007062D02*
Y0003748D01*
X0013280Y0003912D02*
Y0003650D01*
X0013232Y0004600D02*
X0013018D01*
X0010755Y0003637D02*
X0010110Y0002992D01*
X0010851Y0002170D02*
X0010110D01*
X0010755Y0002800D02*
X0010110D01*
X0009597Y0003160D02*
X0003400D01*
X0015100Y0004960D02*
X0013897D01*
X0013370Y0004952D02*
Y0004931D01*
X0010755Y0002890D02*
X0010110D01*
X0009777Y0001360D02*
X0004745D01*
X0010868D02*
X0009922D01*
X0010809Y0001450D02*
X0010109D01*
X0009950Y0006882D02*
Y0003568D01*
X0010755Y0003070D02*
X0010188D01*
X0010220Y0007152D02*
Y0003838D01*
X0010936Y0002080D02*
X0010110D01*
X0009770Y0006702D02*
Y0003388D01*
X0015100Y0004060D02*
X0013428D01*
X0015100Y0004420D02*
X0013973D01*
X0011030Y0006421D02*
Y0005396D01*
X0015100Y0005410D02*
X0013710D01*
X0013910Y0012400D02*
Y0004949D01*
X0010679Y0005140D02*
X0000500D01*
X0015100Y0005500D02*
X0013710D01*
X0011660Y0006200D02*
Y0005260D01*
X0012990Y0005770D02*
X0008027D01*
X0013710Y0008768D02*
Y0005400D01*
X0015100Y0010270D02*
X0013086D01*
X0012110Y0012400D02*
Y0010320D01*
X0012200Y0012400D02*
Y0010320D01*
X0012290Y0012400D02*
Y0010320D01*
X0011930Y0012400D02*
Y0010320D01*
X0015100Y0007750D02*
X0013710D01*
X0001059Y0006670D02*
X0000500D01*
X0013550Y0012400D02*
Y0009036D01*
X0003830Y0001255D02*
Y0000550D01*
X0008330Y0012400D02*
Y0007107D01*
X0009092Y0006760D02*
X0008475D01*
X0003830Y0005240D02*
Y0002799D01*
X0003920Y0012400D02*
Y0005760D01*
X0007970Y0005747D02*
Y0000550D01*
X0007057Y0008830D02*
X0006942D01*
X0015100Y0006850D02*
X0013710D01*
X0004010Y0012400D02*
Y0005760D01*
X0004100Y0012400D02*
Y0005760D01*
X0004190Y0012400D02*
Y0005760D01*
X0005900Y0012400D02*
Y0005955D01*
X0006008Y0005960D02*
X0005950D01*
X0012920Y0003740D02*
Y0003650D01*
X0005990Y0005991D02*
Y0005960D01*
X0002750Y0005656D02*
Y0003900D01*
X0005750Y0005240D02*
X0003274D01*
X0005810Y0005247D02*
Y0000550D01*
X0003755Y0001810D02*
X0003400D01*
X0005926Y0006400D02*
X0003280D01*
X0006009Y0010540D02*
X0002991D01*
X0002930Y0007849D02*
Y0007666D01*
X0003027Y0006114D02*
X0003381Y0005760D01*
X0004280Y0012400D02*
Y0005760D01*
X0004370Y0012400D02*
Y0005760D01*
X0003830Y0012400D02*
Y0005760D01*
X0011300Y0006217D02*
Y0005308D01*
X0015100Y0008560D02*
X0013710D01*
X0008027Y0005747D02*
X0007325D01*
X0009410Y0012400D02*
Y0007078D01*
X0009272Y0006940D02*
X0008444D01*
X0010400Y0012400D02*
Y0008011D01*
X0008600Y0012400D02*
Y0006541D01*
X0003110Y0006327D02*
Y0006031D01*
X0010274Y0007941D02*
X0008874Y0006541D01*
X0003200Y0006355D02*
Y0005941D01*
X0003290Y0006407D02*
Y0005851D01*
X0008870Y0012400D02*
Y0006541D01*
X0015100Y0009280D02*
X0013306D01*
X0012026Y0007390D02*
X0011974D01*
X0011480Y0012400D02*
Y0010319D01*
X0010974Y0007498D02*
X0010565D01*
X0010974Y0008018D02*
X0010458D01*
X0005998Y0007570D02*
X0003002D01*
X0008912Y0006580D02*
X0008432D01*
X0008960Y0006021D02*
Y0000550D01*
X0009002Y0006670D02*
X0008463D01*
X0006001Y0008560D02*
X0002998D01*
X0010310Y0012400D02*
Y0007971D01*
X0011123Y0008290D02*
X0008084D01*
X0010940Y0001289D02*
Y0000550D01*
X0005958Y0009460D02*
X0003041D01*
X0010942Y0008560D02*
X0007998D01*
X0005931Y0010360D02*
X0003068D01*
X0011116Y0009280D02*
X0008084D01*
X0008981Y0006021D02*
X0008027D01*
X0008060Y0008077D02*
Y0007438D01*
X0002996Y0005410D02*
X0000500D01*
X0005915Y0006310D02*
X0003027D01*
X0006890Y0005440D02*
Y0000550D01*
X0011269Y0010270D02*
X0008083D01*
X0015100Y0010360D02*
X0008068D01*
X0009362Y0007030D02*
X0008396D01*
X0006710Y0005440D02*
Y0000550D01*
X0006800Y0005440D02*
Y0000550D01*
X0005952Y0006490D02*
X0003376D01*
X0010980Y0008470D02*
X0008043D01*
X0007157Y0008740D02*
X0006843D01*
X0010940Y0012400D02*
Y0009900D01*
X0011033Y0009370D02*
X0008070D01*
X0010981Y0010000D02*
X0008044D01*
X0009590Y0002980D02*
X0004471D01*
X0003755Y0002245D02*
Y0001255D01*
X0004745D02*
X0003755D01*
X0004745Y0002245D02*
Y0001255D01*
X0003830Y0002275D02*
Y0002245D01*
X0000963Y0007030D02*
X0000500D01*
X0009590Y0002800D02*
X0004669D01*
X0006059Y0006670D02*
X0003463D01*
X0006011Y0006940D02*
X0003444D01*
X0005963Y0007030D02*
X0003396D01*
X0009722Y0007390D02*
X0008072D01*
X0001957Y0005894D02*
Y0005747D01*
X0007053Y0008650D02*
X0006946D01*
X0006005Y0009550D02*
X0002995D01*
X0002659Y0005747D02*
X0003088Y0005317D01*
X0003020Y0007978D02*
Y0007537D01*
X0005994Y0006580D02*
X0003432D01*
X0001400Y0005697D02*
Y0003900D01*
X0006911Y0005440D02*
X0006058D01*
X0010670Y0004886D02*
Y0004720D01*
X0010966Y0001270D02*
X0004745D01*
X0001089Y0005860D02*
X0000500D01*
X0001957Y0005770D02*
X0001809D01*
X0009454Y0001720D02*
X0004745D01*
X0009458Y0001810D02*
X0004745D01*
X0009472Y0001630D02*
X0004745D01*
X0011120Y0008292D02*
Y0008207D01*
X0015100Y0009100D02*
X0013486D01*
X0001220Y0012400D02*
Y0010737D01*
X0010172Y0007840D02*
X0007921D01*
X0013086Y0009500D02*
X0013631Y0008954D01*
X0011390Y0006192D02*
Y0005260D01*
X0012990Y0005950D02*
X0008027D01*
X0002030Y0012400D02*
Y0010591D01*
X0001670Y0012400D02*
Y0010789D01*
X0002174Y0010720D02*
X0001825D01*
X0015100Y0007840D02*
X0013710D01*
X0015100Y0008830D02*
X0013702D01*
X0011120Y0009277D02*
Y0009191D01*
Y0012400D02*
Y0010176D01*
X0013086Y0010320D02*
X0011898D01*
X0002064Y0010630D02*
X0001935D01*
X0011120Y0007308D02*
Y0007223D01*
X0010940Y0009552D02*
Y0008916D01*
X0001040Y0012400D02*
Y0010584D01*
X0010262Y0007930D02*
X0007992D01*
X0008150Y0006021D02*
Y0000550D01*
X0010940Y0008568D02*
Y0008018D01*
X0012000Y0002080D02*
X0011564D01*
X0011390Y0001200D02*
Y0000550D01*
X0013000Y0003740D02*
X0010858D01*
X0009950Y0001366D02*
Y0000550D01*
X0011480Y0001237D02*
Y0000550D01*
X0010670Y0004280D02*
Y0004247D01*
X0010755Y0003637D02*
Y0002755D01*
X0010670Y0003552D02*
Y0000550D01*
X0015100Y0003880D02*
X0013248D01*
X0000917Y0006220D02*
X0000500D01*
X0003400Y0003900D02*
Y0000550D01*
X0012000D02*
X0003400D01*
X0012000Y0003650D02*
Y0000550D01*
X0015100Y0003650D02*
X0012000D01*
X0015100Y0012400D02*
Y0003650D01*
Y0012400D02*
X0000500D01*
Y0003900D01*
X0003400D02*
X0000500D01*
X0015080Y0012400D02*
Y0003650D01*
X0014990Y0012400D02*
Y0003650D01*
X0014900Y0012400D02*
Y0003650D01*
X0014810Y0012400D02*
Y0003650D01*
X0014720Y0012400D02*
Y0003650D01*
X0014540Y0012400D02*
Y0003650D01*
X0014450Y0012400D02*
Y0003650D01*
X0014360Y0012400D02*
Y0003650D01*
X0014270Y0012400D02*
Y0003650D01*
X0014180Y0012400D02*
Y0003650D01*
X0014000Y0012400D02*
Y0004837D01*
X0013730Y0012400D02*
Y0005038D01*
Y0004261D02*
Y0003650D01*
X0012200Y0003740D02*
Y0003650D01*
X0015100Y0005860D02*
X0013710D01*
X0015100Y0005770D02*
X0013710D01*
X0012920Y0004502D02*
Y0004288D01*
X0012650Y0003740D02*
Y0003650D01*
X0012380Y0003740D02*
Y0003650D01*
X0013820Y0004291D02*
Y0003650D01*
X0011745Y0003740D02*
Y0002755D01*
X0013634Y0005216D02*
X0012736Y0004318D01*
X0013820Y0012400D02*
Y0005008D01*
X0013100Y0003760D02*
Y0003650D01*
X0015100Y0005050D02*
X0013468D01*
X0011030Y0001232D02*
Y0000550D01*
X0012110Y0003740D02*
Y0003650D01*
X0012000Y0001270D02*
X0011534D01*
X0012000Y0001990D02*
X0011632D01*
X0011660Y0001398D02*
Y0000550D01*
X0010850Y0002755D02*
X0010755D01*
X0015100Y0005950D02*
X0013710D01*
X0011210Y0001182D02*
Y0000550D01*
X0011750Y0003740D02*
Y0000550D01*
X0013010Y0004592D02*
Y0004378D01*
X0010400Y0007332D02*
Y0004018D01*
X0012740Y0003740D02*
Y0003650D01*
X0003560Y0012400D02*
Y0005760D01*
X0010040Y0001402D02*
Y0000550D01*
X0009590Y0003100D02*
Y0002049D01*
X0015100Y0004780D02*
X0014025D01*
X0010220Y0001607D02*
Y0000550D01*
X0012560Y0003740D02*
Y0003650D01*
X0010490Y0003372D02*
Y0000550D01*
X0010310Y0003192D02*
Y0000550D01*
X0009860Y0001353D02*
Y0000550D01*
X0009770Y0001361D02*
Y0000550D01*
X0009680Y0001391D02*
Y0000550D01*
X0009500Y0001563D02*
Y0000550D01*
X0009410Y0006342D02*
Y0000550D01*
X0009320Y0006252D02*
Y0000550D01*
X0008027Y0006021D02*
Y0005747D01*
X0009230Y0006162D02*
Y0000550D01*
X0009140Y0006075D02*
Y0000550D01*
X0009050Y0006030D02*
Y0000550D01*
X0008870Y0006021D02*
Y0000550D01*
X0008780Y0006021D02*
Y0000550D01*
X0008690Y0006021D02*
Y0000550D01*
X0010565Y0007498D02*
X0009167Y0006100D01*
X0008600Y0006021D02*
Y0000550D01*
X0008510Y0006021D02*
Y0000550D01*
X0008420Y0006021D02*
Y0000550D01*
X0008330Y0006021D02*
Y0000550D01*
X0005652Y0005770D02*
X0003371D01*
X0013910Y0004350D02*
Y0003650D01*
X0006980Y0005449D02*
Y0000550D01*
X0007790Y0005747D02*
Y0000550D01*
X0007700Y0005747D02*
Y0000550D01*
X0007610Y0005747D02*
Y0000550D01*
X0007520Y0005747D02*
Y0000550D01*
X0005180Y0012400D02*
Y0005760D01*
X0006073Y0008830D02*
X0002927D01*
X0006078Y0007840D02*
X0002921D01*
X0005915Y0007300D02*
X0003085D01*
X0005917Y0006220D02*
X0003027D01*
X0010580Y0012400D02*
Y0008018D01*
X0005360Y0005240D02*
Y0000550D01*
X0006170Y0005440D02*
Y0000550D01*
X0007325Y0005747D02*
X0007097Y0005518D01*
X0007880Y0005747D02*
Y0000550D01*
X0007430Y0005747D02*
Y0000550D01*
X0006620Y0005440D02*
Y0000550D01*
X0012830Y0003740D02*
Y0003650D01*
X0002930Y0005476D02*
Y0003900D01*
X0005810Y0012400D02*
Y0005919D01*
X0005630Y0012400D02*
Y0005760D01*
X0005540Y0012400D02*
Y0005760D01*
X0005450Y0012400D02*
Y0005760D01*
X0005360Y0012400D02*
Y0005760D01*
X0005270Y0012400D02*
Y0005760D01*
X0002840Y0005566D02*
Y0003900D01*
X0005090Y0012400D02*
Y0005760D01*
X0005000Y0012400D02*
Y0005760D01*
X0004910Y0012400D02*
Y0005760D01*
X0003470Y0005240D02*
Y0000550D01*
X0004730Y0001255D02*
Y0000550D01*
X0004640Y0001255D02*
Y0000550D01*
X0004550Y0001255D02*
Y0000550D01*
X0003786Y0002710D02*
X0003400D01*
X0004370Y0001255D02*
Y0000550D01*
X0003762Y0002620D02*
X0003400D01*
X0004190Y0001255D02*
Y0000550D01*
X0004820Y0012400D02*
Y0005760D01*
X0003740Y0012400D02*
Y0005760D01*
X0003650Y0012400D02*
Y0005760D01*
X0002659Y0005747D02*
X0001957D01*
X0005965Y0006040D02*
X0003101D01*
X0003470Y0006704D02*
Y0005760D01*
X0004460Y0012400D02*
Y0005760D01*
X0006058Y0005440D02*
X0005936Y0005318D01*
X0003027Y0006318D02*
Y0006114D01*
X0009590Y0003070D02*
X0003400D01*
X0003755Y0002530D02*
X0003400D01*
X0004010Y0001255D02*
Y0000550D01*
X0002030Y0005747D02*
Y0003900D01*
X0003380Y0005240D02*
Y0003900D01*
X0002570Y0005747D02*
Y0003900D01*
X0002480Y0005747D02*
Y0003900D01*
X0002390Y0005747D02*
Y0003900D01*
X0002300Y0005747D02*
Y0003900D01*
X0001220Y0005762D02*
Y0003900D01*
X0001040Y0005915D02*
Y0003900D01*
X0000950Y0006078D02*
Y0003900D01*
X0001130Y0005823D02*
Y0003900D01*
X0002210Y0005747D02*
Y0003900D01*
X0000926Y0006400D02*
X0000500D01*
X0001670Y0005710D02*
Y0003900D01*
X0001580Y0005692D02*
Y0003900D01*
X0000933Y0006130D02*
X0000500D01*
X0000860Y0012400D02*
Y0003900D01*
X0000770Y0012400D02*
Y0003900D01*
X0000680Y0012400D02*
Y0003900D01*
X0011600Y0001325D02*
X0011250Y0001675D01*
X0000916Y0009280D02*
X0000500D01*
X0015100Y0012340D02*
X0000500D01*
X0015100Y0012250D02*
X0000500D01*
X0015100Y0012160D02*
X0000500D01*
X0015100Y0012070D02*
X0000500D01*
X0015100Y0011980D02*
X0000500D01*
X0015100Y0011890D02*
X0000500D01*
X0015100Y0011800D02*
X0000500D01*
X0015100Y0011710D02*
X0000500D01*
X0015100Y0011620D02*
X0000500D01*
X0015100Y0011530D02*
X0000500D01*
X0015100Y0011440D02*
X0000500D01*
X0015100Y0011350D02*
X0000500D01*
X0015100Y0011260D02*
X0000500D01*
X0015100Y0011170D02*
X0000500D01*
X0015100Y0011080D02*
X0000500D01*
X0015100Y0010990D02*
X0000500D01*
X0001130Y0012400D02*
Y0010676D01*
X0002210Y0012400D02*
Y0010741D01*
X0001190Y0010720D02*
X0000500D01*
X0002120Y0012400D02*
Y0010681D01*
X0001009Y0010540D02*
X0000500D01*
X0015100Y0006580D02*
X0013710D01*
X0000958Y0009460D02*
X0000500D01*
X0000928Y0008380D02*
X0000500D01*
X0015100Y0010900D02*
X0000500D01*
X0000915Y0010180D02*
X0000500D01*
X0000928Y0010090D02*
X0000500D01*
X0000955Y0010000D02*
X0000500D01*
X0001000Y0009910D02*
X0000500D01*
X0001067Y0009820D02*
X0000500D01*
X0001069Y0008650D02*
X0000500D01*
X0001074Y0009640D02*
X0000500D01*
X0001001Y0008560D02*
X0000500D01*
X0000916Y0010270D02*
X0000500D01*
X0001170Y0009730D02*
X0000500D01*
X0000915Y0009190D02*
X0000500D01*
X0000929Y0009100D02*
X0000500D01*
X0000958Y0009010D02*
X0000500D01*
X0001004Y0008920D02*
X0000500D01*
X0001172Y0008740D02*
X0000500D01*
X0000954Y0007480D02*
X0000500D01*
X0010940Y0007498D02*
Y0006947D01*
X0000952Y0006490D02*
X0000500D01*
X0001073Y0008830D02*
X0000500D01*
X0000915Y0008290D02*
X0000500D01*
X0000916Y0008200D02*
X0000500D01*
X0000931Y0008110D02*
X0000500D01*
X0000960Y0008020D02*
X0000500D01*
X0001007Y0007930D02*
X0000500D01*
X0001164Y0007750D02*
X0000500D01*
X0001064Y0007660D02*
X0000500D01*
X0007160Y0012400D02*
Y0010710D01*
X0001078Y0007840D02*
X0000500D01*
X0003470Y0012400D02*
Y0006843D01*
X0003380Y0012400D02*
Y0007052D01*
X0003290Y0012400D02*
Y0007140D01*
X0003200Y0012400D02*
Y0007192D01*
X0003110Y0012400D02*
Y0007220D01*
X0007610Y0012400D02*
Y0010800D01*
X0001156Y0006760D02*
X0000500D01*
X0005270Y0005240D02*
Y0000550D01*
X0003755Y0001630D02*
X0003400D01*
X0000965Y0006040D02*
X0000500D01*
X0002906Y0005500D02*
X0000500D01*
X0005742Y0005860D02*
X0003281D01*
X0003560Y0005240D02*
Y0000550D01*
X0010727Y0005230D02*
X0000500D01*
X0001015Y0005950D02*
X0000500D01*
X0001206Y0005770D02*
X0000500D01*
X0012912Y0005680D02*
X0007258D01*
X0012642Y0005410D02*
X0006028D01*
X0011750Y0006232D02*
Y0005260D01*
X0002726Y0005680D02*
X0000500D01*
X0003086Y0005320D02*
X0000500D01*
X0011930Y0003740D02*
Y0000550D01*
X0010656Y0005050D02*
X0000500D01*
X0010675Y0004870D02*
X0000500D01*
X0010719Y0004780D02*
X0000500D01*
X0010652Y0004690D02*
X0000500D01*
X0010616Y0004600D02*
X0000500D01*
X0010611Y0004420D02*
X0000500D01*
X0010580Y0007498D02*
Y0004197D01*
X0010650Y0004240D02*
X0000500D01*
X0005900Y0005287D02*
Y0000550D01*
X0002816Y0005590D02*
X0000500D01*
X0010641Y0004330D02*
X0000500D01*
X0010580Y0003462D02*
Y0000550D01*
X0010262Y0003880D02*
X0003400D01*
X0010172Y0003790D02*
X0003400D01*
X0010082Y0003700D02*
X0003400D01*
X0009992Y0003610D02*
X0003400D01*
X0009902Y0003520D02*
X0003400D01*
X0009812Y0003430D02*
X0003400D01*
X0009722Y0003340D02*
X0003400D01*
X0002120Y0005747D02*
Y0003900D01*
X0010352Y0003970D02*
X0000500D01*
X0003792Y0002350D02*
X0003400D01*
X0003840Y0002260D02*
X0003400D01*
X0004028Y0002980D02*
X0003400D01*
X0003755Y0001720D02*
X0003400D01*
X0003830Y0002800D02*
X0003400D01*
X0003755Y0001540D02*
X0003400D01*
X0003755Y0001450D02*
X0003400D01*
X0003755Y0001360D02*
X0003400D01*
X0012000Y0001180D02*
X0003400D01*
X0003755Y0001270D02*
X0003400D01*
X0012000Y0001090D02*
X0003400D01*
X0012000Y0001000D02*
X0003400D01*
X0012000Y0000910D02*
X0003400D01*
X0012000Y0000820D02*
X0003400D01*
X0000590Y0012400D02*
Y0003900D01*
X0012290Y0003740D02*
Y0003650D01*
X0012830Y0004412D02*
Y0004260D01*
X0012740Y0004322D02*
Y0004260D01*
X0003110Y0005298D02*
Y0003900D01*
X0012962Y0004330D02*
X0012748D01*
X0015100D02*
X0013884D01*
X0015100Y0003970D02*
X0013338D01*
X0010755Y0003610D02*
X0010728D01*
X0010755Y0003520D02*
X0010638D01*
X0010755Y0003430D02*
X0010548D01*
X0013640Y0005222D02*
Y0005046D01*
X0010490Y0007422D02*
Y0004108D01*
X0015100Y0006040D02*
X0013710D01*
X0011840Y0003740D02*
Y0000550D01*
X0010310Y0007242D02*
Y0003928D01*
X0009680Y0006612D02*
Y0003298D01*
X0009637Y0003250D02*
X0003400D01*
X0010755Y0003340D02*
X0010458D01*
X0010755Y0003250D02*
X0010368D01*
X0010755Y0003160D02*
X0010278D01*
X0010821Y0002710D02*
X0010110D01*
X0010781Y0002620D02*
X0010110D01*
X0010759Y0002530D02*
X0010110D01*
X0010755Y0002440D02*
X0010110D01*
X0010768Y0002350D02*
X0010110D01*
X0010798Y0002260D02*
X0010110D01*
X0010755Y0002980D02*
X0010110D01*
X0009590Y0002080D02*
X0004745D01*
X0010868Y0001990D02*
X0010166D01*
X0010809Y0001900D02*
X0010217D01*
X0010774Y0001810D02*
X0010242D01*
X0010757Y0001720D02*
X0010245D01*
X0010757Y0001630D02*
X0010228D01*
X0010774Y0001540D02*
X0010186D01*
X0010110Y0002992D02*
Y0002049D01*
X0010220Y0003102D02*
Y0001893D01*
X0012290Y0006215D02*
Y0005260D01*
X0012470Y0006180D02*
Y0005260D01*
X0012110Y0006319D02*
Y0005260D01*
X0012020Y0006413D02*
Y0005260D01*
X0011930Y0006356D02*
Y0005260D01*
X0011840Y0006282D02*
Y0005260D01*
X0010655Y0004960D02*
X0000500D01*
X0012552Y0005320D02*
X0011284D01*
X0009590Y0001450D02*
Y0000550D01*
X0009500Y0006432D02*
Y0001937D01*
X0010760Y0001605D02*
Y0000550D01*
X0009860Y0006792D02*
Y0003478D01*
X0010040Y0006972D02*
Y0003658D01*
X0013280Y0004862D02*
Y0004793D01*
X0012492Y0005260D02*
X0011349D01*
X0011210Y0006260D02*
Y0005363D01*
X0011120Y0006324D02*
Y0005390D01*
X0010940Y0006600D02*
Y0005381D01*
X0010850Y0007498D02*
Y0005342D01*
X0010760Y0007498D02*
Y0005270D01*
X0015100Y0004510D02*
X0014021D01*
X0015100Y0005140D02*
X0013558D01*
X0013402Y0004960D02*
X0013378D01*
X0013320Y0004870D02*
X0013288D01*
X0013275Y0004780D02*
X0013198D01*
X0012822Y0005590D02*
X0007168D01*
X0012380Y0006190D02*
Y0005260D01*
X0012920Y0006362D02*
Y0005688D01*
X0012830Y0006285D02*
Y0005598D01*
X0012740Y0006234D02*
Y0005508D01*
X0012650Y0006201D02*
Y0005418D01*
X0012560Y0006184D02*
Y0005328D01*
X0013100Y0004682D02*
Y0004468D01*
X0013640Y0012400D02*
Y0008946D01*
X0015100Y0007210D02*
X0013710D01*
X0015100Y0007120D02*
X0013710D01*
X0015100Y0007030D02*
X0013710D01*
X0015100Y0005590D02*
X0013710D01*
X0012732Y0005500D02*
X0007077D01*
X0008060Y0006021D02*
Y0000550D01*
X0004730Y0012400D02*
Y0005760D01*
X0004640Y0012400D02*
Y0005760D01*
X0004550Y0012400D02*
Y0005760D01*
X0005642D02*
X0003381D01*
X0002660Y0005746D02*
Y0003900D01*
X0010532Y0004150D02*
X0000500D01*
X0010442Y0004060D02*
X0000500D01*
X0005720Y0005240D02*
Y0000550D01*
X0005630Y0005240D02*
Y0000550D01*
X0005540Y0005240D02*
Y0000550D01*
X0005450Y0005240D02*
Y0000550D01*
X0000915Y0006310D02*
X0000500D01*
X0007250Y0005672D02*
Y0000550D01*
X0005180Y0005240D02*
Y0000550D01*
X0005090Y0005240D02*
Y0000550D01*
X0005000Y0005240D02*
Y0000550D01*
X0004910Y0005240D02*
Y0000550D01*
X0004820Y0005240D02*
Y0000550D01*
X0003740Y0005240D02*
Y0000550D01*
X0005766Y0005884D02*
X0005642Y0005760D01*
X0008780Y0012400D02*
Y0006541D01*
X0008690Y0012400D02*
Y0006541D01*
X0010220Y0012400D02*
Y0007888D01*
X0008420Y0006556D02*
Y0006541D01*
X0010983Y0007480D02*
X0010548D01*
X0011041Y0007390D02*
X0010458D01*
X0010914Y0006760D02*
X0009828D01*
X0010923Y0006670D02*
X0009738D01*
X0010946Y0006580D02*
X0009648D01*
X0010986Y0006490D02*
X0009558D01*
X0011105Y0007210D02*
X0010278D01*
X0011025Y0007120D02*
X0010188D01*
X0010972Y0007030D02*
X0010098D01*
X0010938Y0006940D02*
X0010008D01*
X0011129Y0007300D02*
X0010368D01*
X0009632D02*
X0008085D01*
X0011046Y0006400D02*
X0009468D01*
X0011137Y0006310D02*
X0009378D01*
X0011293Y0006220D02*
X0009288D01*
X0010603Y0004510D02*
X0000500D01*
X0013100Y0012400D02*
Y0009486D01*
X0010130Y0012400D02*
Y0007798D01*
X0010040Y0012400D02*
Y0007708D01*
X0009950Y0012400D02*
Y0007618D01*
X0015100Y0008470D02*
X0013710D01*
X0015100Y0008380D02*
X0013710D01*
X0015100Y0008290D02*
X0013710D01*
X0015100Y0009460D02*
X0013126D01*
X0007970Y0008882D02*
Y0008602D01*
X0007880Y0008785D02*
Y0008699D01*
X0008060Y0009061D02*
Y0008423D01*
X0007070Y0007832D02*
Y0007683D01*
X0007149Y0007750D02*
X0006851D01*
X0009992Y0007660D02*
X0007936D01*
X0007970Y0009866D02*
Y0009586D01*
X0007880Y0009769D02*
Y0009683D01*
X0008060Y0010045D02*
Y0009407D01*
X0007070Y0008817D02*
Y0008667D01*
X0010920Y0008830D02*
X0007927D01*
X0010490Y0012400D02*
Y0008018D01*
X0007970Y0012400D02*
Y0010570D01*
X0007880Y0012400D02*
Y0010667D01*
X0007070Y0012400D02*
Y0010636D01*
X0005990Y0012400D02*
Y0010509D01*
X0008060Y0012400D02*
Y0010391D01*
X0015100Y0010720D02*
X0007809D01*
X0007790Y0012400D02*
Y0010732D01*
X0002300Y0012400D02*
Y0010780D01*
X0001005Y0009550D02*
X0000500D01*
X0000961Y0010450D02*
X0000500D01*
X0007430Y0012400D02*
Y0010809D01*
X0007250Y0012400D02*
Y0010760D01*
X0010921Y0009820D02*
X0007932D01*
X0010914Y0009730D02*
X0007829D01*
X0008874Y0006541D02*
X0008411D01*
X0009542Y0007210D02*
X0008151D01*
X0009452Y0007120D02*
X0008316D01*
X0010760Y0012400D02*
Y0008018D01*
X0015100Y0010450D02*
X0008038D01*
X0007048Y0007660D02*
X0006951D01*
X0011125Y0010180D02*
X0008084D01*
X0009050Y0012400D02*
Y0006718D01*
X0011038Y0010090D02*
X0008071D01*
X0015100Y0004240D02*
X0013608D01*
X0010082Y0007750D02*
X0007835D01*
X0013086Y0010320D02*
Y0009500D01*
X0008420Y0012400D02*
Y0006991D01*
X0006260Y0005440D02*
Y0000550D01*
X0006170Y0006777D02*
Y0006769D01*
X0006080Y0006854D02*
Y0006693D01*
X0005990Y0006975D02*
Y0006572D01*
X0005878Y0005950D02*
X0003191D01*
X0007880Y0007801D02*
Y0007715D01*
X0006980Y0007890D02*
Y0007625D01*
X0006890Y0007796D02*
Y0007720D01*
X0006170Y0007762D02*
Y0007754D01*
X0006080Y0007838D02*
Y0007677D01*
X0005990Y0007959D02*
Y0007556D01*
X0015100Y0006760D02*
X0013710D01*
X0007062Y0007840D02*
X0006937D01*
X0010670Y0012400D02*
Y0008018D01*
X0010850Y0012400D02*
Y0008018D01*
X0010977Y0009460D02*
X0008041D01*
X0008510Y0012400D02*
Y0006541D01*
X0007340Y0005747D02*
Y0000550D01*
X0009230Y0012400D02*
Y0006898D01*
X0015100Y0008740D02*
X0013710D01*
X0006980Y0008875D02*
Y0008609D01*
X0006890Y0008780D02*
Y0008704D01*
X0006170Y0008746D02*
Y0008738D01*
X0006080Y0008822D02*
Y0008662D01*
X0005990Y0008944D02*
Y0008540D01*
X0015100Y0005680D02*
X0013710D01*
X0006164Y0007750D02*
X0002835D01*
X0009902Y0007570D02*
X0008002D01*
X0010921Y0008650D02*
X0007931D01*
X0009140Y0012400D02*
Y0006808D01*
X0009812Y0007480D02*
X0008045D01*
X0010919Y0006850D02*
X0009918D01*
X0011030Y0008110D02*
X0008069D01*
X0015100Y0007660D02*
X0013710D01*
X0009182Y0006850D02*
X0008469D01*
X0006080Y0009806D02*
Y0009646D01*
X0005990Y0009928D02*
Y0009525D01*
X0006172Y0008740D02*
X0002827D01*
X0010941Y0009550D02*
X0007995D01*
X0011037Y0008380D02*
X0008071D01*
X0011112Y0008200D02*
X0008083D01*
X0010975Y0008020D02*
X0008039D01*
X0011034Y0009100D02*
X0008070D01*
X0010978Y0009010D02*
X0008041D01*
X0010941Y0008920D02*
X0007995D01*
X0010920Y0009640D02*
X0007925D01*
X0015100Y0010810D02*
X0007541D01*
X0006980Y0012400D02*
Y0010578D01*
X0006890Y0012400D02*
Y0010672D01*
X0006800Y0012400D02*
Y0010735D01*
X0006710Y0012400D02*
Y0010776D01*
X0006620Y0012400D02*
Y0010801D01*
X0006530Y0012400D02*
Y0010811D01*
X0006440Y0012400D02*
Y0010808D01*
X0006350Y0012400D02*
Y0010791D01*
X0006260Y0012400D02*
Y0010758D01*
X0006170Y0012400D02*
Y0010706D01*
X0006080Y0012400D02*
Y0010630D01*
X0006440Y0005440D02*
Y0000550D01*
X0007443Y0010810D02*
X0006556D01*
X0007174Y0010720D02*
X0006825D01*
X0007064Y0010630D02*
X0006935D01*
X0015100D02*
X0007920D01*
X0015100Y0010540D02*
X0007991D01*
X0011118Y0009190D02*
X0008084D01*
X0010943Y0009910D02*
X0007999D01*
X0003920Y0005240D02*
Y0002906D01*
X0004745Y0002245D02*
X0004649D01*
X0005720Y0012400D02*
Y0005838D01*
X0009590Y0002710D02*
X0004714D01*
X0009590Y0002620D02*
X0004738D01*
X0009590Y0002530D02*
X0004745D01*
X0009590Y0002440D02*
X0004735D01*
X0009590Y0002350D02*
X0004708D01*
X0009590Y0002260D02*
X0004660D01*
X0006170Y0009730D02*
X0002829D01*
X0004730Y0002416D02*
Y0002245D01*
Y0005240D02*
Y0002658D01*
X0004640Y0005240D02*
Y0002842D01*
X0004550Y0005240D02*
Y0002931D01*
X0004460Y0005240D02*
Y0002985D01*
X0004370Y0005240D02*
Y0003017D01*
X0004280Y0005240D02*
Y0003031D01*
X0004190Y0005240D02*
Y0003029D01*
X0004100Y0005240D02*
Y0003009D01*
X0003020Y0008963D02*
Y0008521D01*
X0002930Y0008833D02*
Y0008651D01*
X0002840Y0008753D02*
Y0008731D01*
X0002149Y0007750D02*
X0001851D01*
X0002120Y0008772D02*
Y0008712D01*
X0006007Y0007930D02*
X0002992D01*
X0003020Y0009947D02*
Y0009506D01*
X0002930Y0009817D02*
Y0009635D01*
X0002840Y0009737D02*
Y0009715D01*
X0002030Y0008861D02*
Y0008623D01*
X0002157Y0008740D02*
X0001843D01*
X0006004Y0008920D02*
X0002995D01*
X0007700Y0012400D02*
Y0010774D01*
X0002750Y0012400D02*
Y0010753D01*
X0002660Y0012400D02*
Y0010788D01*
X0002570Y0012400D02*
Y0010807D01*
X0003020Y0012400D02*
Y0010490D01*
X0002930Y0012400D02*
Y0010619D01*
X0002840Y0012400D02*
Y0010699D01*
X0002480Y0012400D02*
Y0010812D01*
X0002390Y0012400D02*
Y0010803D01*
X0007970Y0007898D02*
Y0007618D01*
X0006459Y0010810D02*
X0002541D01*
X0006190Y0010720D02*
X0002809D01*
X0001459Y0010810D02*
X0000500D01*
X0001080Y0010630D02*
X0000500D01*
X0006000Y0009910D02*
X0002999D01*
X0006067Y0009820D02*
X0002932D01*
X0008240Y0006021D02*
Y0000550D01*
X0005916Y0007210D02*
X0003151D01*
X0005932Y0007120D02*
X0003316D01*
X0005954Y0007480D02*
X0003045D01*
X0000915Y0007300D02*
X0000500D01*
X0000916Y0007210D02*
X0000500D01*
X0000932Y0007120D02*
X0000500D01*
X0002057Y0008830D02*
X0001942D01*
X0002062Y0007840D02*
X0001937D01*
X0009513Y0001540D02*
X0004745D01*
X0005927Y0007390D02*
X0003072D01*
X0002030Y0007877D02*
Y0007638D01*
X0007160Y0005582D02*
Y0000550D01*
X0006350Y0005440D02*
Y0000550D01*
X0006064Y0007660D02*
X0002936D01*
X0006156Y0006760D02*
X0003475D01*
X0009483Y0001900D02*
X0004745D01*
X0001040Y0006900D02*
Y0006647D01*
X0000950Y0007062D02*
Y0006485D01*
X0001130Y0006807D02*
Y0006739D01*
X0004010Y0005240D02*
Y0002970D01*
X0005990Y0005372D02*
Y0000550D01*
X0003200Y0005250D02*
Y0003900D01*
X0005933Y0006130D02*
X0003027D01*
X0003020Y0005386D02*
Y0003900D01*
X0001957Y0005860D02*
X0001926D01*
X0006074Y0009640D02*
X0002925D01*
X0001940Y0007843D02*
Y0007672D01*
X0001850Y0007765D02*
Y0007751D01*
X0001040Y0007884D02*
Y0007631D01*
X0000950Y0008046D02*
Y0007469D01*
X0001130Y0007792D02*
Y0007724D01*
X0002048Y0007660D02*
X0001951D01*
X0002120Y0007787D02*
Y0007728D01*
X0006084Y0006850D02*
X0003469D01*
X0009590Y0001450D02*
X0004745D01*
X0006069Y0008650D02*
X0002931D01*
X0009590Y0002170D02*
X0004745D01*
X0001940Y0008827D02*
Y0008657D01*
X0001850Y0008749D02*
Y0008735D01*
X0001040Y0008868D02*
Y0008616D01*
X0000950Y0009031D02*
Y0008453D01*
X0001130Y0008776D02*
Y0008708D01*
X0002053Y0008650D02*
X0001946D01*
X0005956Y0008470D02*
X0003043D01*
X0005928Y0008380D02*
X0003071D01*
X0005915Y0008290D02*
X0003084D01*
X0005916Y0008200D02*
X0003083D01*
X0005931Y0008110D02*
X0003069D01*
X0005960Y0008020D02*
X0003039D01*
X0000994Y0006580D02*
X0000500D01*
X0002840Y0007769D02*
Y0007746D01*
X0001040Y0009852D02*
Y0009600D01*
X0000950Y0010015D02*
Y0009438D01*
X0001130Y0009760D02*
Y0009692D01*
X0010914Y0008740D02*
X0007827D01*
X0005930Y0009370D02*
X0003070D01*
X0005916Y0009280D02*
X0003084D01*
X0005915Y0009190D02*
X0003084D01*
X0005929Y0009100D02*
X0003070D01*
X0005958Y0009010D02*
X0003041D01*
X0000998Y0007570D02*
X0000500D01*
X0006530Y0005440D02*
Y0000550D01*
X0007520Y0012400D02*
Y0010811D01*
X0001940Y0012400D02*
Y0010625D01*
X0001850Y0012400D02*
Y0010703D01*
X0001760Y0012400D02*
Y0010756D01*
X0012990Y0006220D02*
X0012706D01*
X0012990Y0006130D02*
X0009198D01*
X0001490Y0012400D02*
Y0010812D01*
X0013190Y0012400D02*
Y0009396D01*
X0001580Y0012400D02*
Y0010807D01*
X0013255Y0004690D02*
X0013108D01*
X0015100Y0006940D02*
X0013710D01*
X0015100Y0006490D02*
X0013710D01*
X0013370Y0012400D02*
Y0009216D01*
X0013280Y0012400D02*
Y0009306D01*
X0011750Y0012400D02*
Y0010268D01*
X0005955Y0010000D02*
X0003044D01*
X0013460Y0012400D02*
Y0009126D01*
X0009860Y0012400D02*
Y0007528D01*
X0015100Y0008650D02*
X0013710D01*
X0009770Y0012400D02*
Y0007438D01*
X0009680Y0012400D02*
Y0007348D01*
X0008240Y0012400D02*
Y0007172D01*
X0008150Y0012400D02*
Y0007210D01*
X0015100Y0008110D02*
X0013710D01*
X0015100Y0009190D02*
X0013396D01*
X0009590Y0012400D02*
Y0007258D01*
X0013010Y0012400D02*
Y0010320D01*
X0012920Y0012400D02*
Y0010320D01*
X0012830Y0012400D02*
Y0010320D01*
X0012740Y0012400D02*
Y0010320D01*
X0012650Y0012400D02*
Y0010320D01*
X0012560Y0012400D02*
Y0010320D01*
X0012470Y0012400D02*
Y0010320D01*
X0012380Y0012400D02*
Y0010320D01*
X0012470Y0003740D02*
Y0003650D01*
X0011898Y0010270D02*
X0011746D01*
X0011898Y0010180D02*
X0011890D01*
X0015100D02*
X0013086D01*
X0015100Y0010090D02*
X0013086D01*
X0015100Y0010000D02*
X0013086D01*
X0015100Y0009910D02*
X0013086D01*
X0015100Y0009820D02*
X0013086D01*
X0015100Y0009730D02*
X0013086D01*
X0015100Y0009640D02*
X0013086D01*
X0011300Y0012400D02*
Y0010282D01*
X0015100Y0008020D02*
X0013710D01*
X0011210Y0012400D02*
Y0010240D01*
X0011898Y0010320D02*
Y0010173D01*
X0015100Y0009010D02*
X0013576D01*
X0008960Y0012400D02*
Y0006628D01*
X0000927Y0007390D02*
X0000500D01*
X0015100Y0009370D02*
X0013216D01*
X0015100Y0007930D02*
X0013710D01*
X0009320Y0012400D02*
Y0006988D01*
X0015100Y0007480D02*
X0013710D01*
X0013010Y0003740D02*
Y0003650D01*
X0005928Y0010090D02*
X0003071D01*
X0005915Y0010180D02*
X0003084D01*
X0005916Y0010270D02*
X0003083D01*
X0011390Y0012400D02*
Y0010308D01*
X0012020Y0012400D02*
Y0010320D01*
X0015100Y0007300D02*
X0013710D01*
X0011030Y0009374D02*
Y0009094D01*
X0000930Y0009370D02*
X0000500D01*
X0012020Y0007397D02*
Y0007134D01*
X0002443Y0010810D02*
X0001556D01*
X0000950Y0012400D02*
Y0010422D01*
X0011840Y0012400D02*
Y0010218D01*
X0011030Y0012400D02*
Y0010079D01*
Y0008389D02*
Y0008110D01*
X0000956Y0008470D02*
X0000500D01*
X0015100Y0006670D02*
X0013710D01*
X0012089Y0007210D02*
X0011910D01*
X0012010Y0007120D02*
X0011990D01*
X0012200Y0006257D02*
Y0005260D01*
X0012031Y0006400D02*
X0011969D01*
X0012121Y0006310D02*
X0011878D01*
X0012110Y0007303D02*
Y0007228D01*
X0015100Y0008200D02*
X0013710D01*
X0015100Y0009550D02*
X0013086D01*
X0011660Y0012400D02*
Y0010300D01*
X0011570Y0012400D02*
Y0010317D01*
X0012990Y0005758D02*
X0012492Y0005260D01*
X0011930Y0007340D02*
Y0007191D01*
X0015100Y0007390D02*
X0013710D01*
X0006080Y0010630D02*
X0002920D01*
X0011030Y0007405D02*
Y0007126D01*
X0015100Y0006130D02*
X0013710D01*
X0012000Y0001900D02*
X0011691D01*
X0012000Y0001810D02*
X0011726D01*
X0012000Y0001720D02*
X0011743D01*
X0012000Y0001630D02*
X0011743D01*
X0012000Y0001540D02*
X0011726D01*
X0012000Y0001450D02*
X0011691D01*
X0012000Y0001360D02*
X0011631D01*
X0011660Y0002185D02*
Y0001953D01*
X0011570Y0002085D02*
Y0002053D01*
X0010940Y0002077D02*
Y0002061D01*
X0010850Y0002171D02*
Y0001967D01*
X0010760Y0002392D02*
Y0001745D01*
X0011570Y0001298D02*
Y0000550D01*
X0012000Y0002710D02*
X0011679D01*
X0012000Y0002620D02*
X0011719D01*
X0012000Y0002530D02*
X0011740D01*
X0012000Y0002440D02*
X0011744D01*
X0012000Y0002350D02*
X0011732D01*
X0012000Y0002260D02*
X0011701D01*
X0012000Y0002170D02*
X0011649D01*
X0011660Y0002755D02*
Y0002740D01*
X0011745Y0002755D02*
X0011649D01*
X0011745Y0003745D02*
X0010863D01*
X0011300Y0001183D02*
Y0000550D01*
X0015100Y0003700D02*
X0011745D01*
X0012000Y0003610D02*
X0011745D01*
X0012000Y0003520D02*
X0011745D01*
X0012000Y0003430D02*
X0011745D01*
X0012000Y0003340D02*
X0011745D01*
X0012000Y0003250D02*
X0011745D01*
X0012000Y0003160D02*
X0011745D01*
X0012000Y0003070D02*
X0011745D01*
X0012000Y0002980D02*
X0011745D01*
X0012000Y0002890D02*
X0011745D01*
G01X0012000Y0006442D02*
G03X0012492Y0006180I0000492J0000332D01*
G01X0007000Y0007597D02*
G03X0006839Y0007758I0000492J0000331D01*
G01X0001176Y0006773D02*
G03X0000914Y0006281I0000332J0000492D01*
G01X0010653Y0005000D02*
G03X0010719Y0004780I0000397J0000000D01*
G01X0011050Y0005397D02*
G03X0010653Y0005000I0000000J0000397D01*
G01X0011349Y0005260D02*
G03X0011050Y0005396I0000299J0000260D01*
G01X0013650Y0004253D02*
G03X0014047Y0004650I0000000J0000397D01*
G03X0013650Y0005047I0000397J0000000D01*
G03X0013253Y0004650I0000000J0000397D01*
G01X0013000Y0003740D02*
G03X0013184Y0003816I0000000J0000260D01*
G01X0010690Y0004253D02*
G03X0010566Y0004184I0000060J0000253D01*
G01X0009666Y0003284D02*
G03X0009590Y0003100I0000184J0000184D01*
G01X0009453Y0001750D02*
G03X0009850Y0001353I0000397J0000000D01*
G03X0010247Y0001750I0000000J0000397D01*
G03X0010110Y0002049I0000397J0000000D01*
G01X0010690Y0004253D02*
G03X0010566Y0004184I0000060J0000253D01*
G01X0013710Y0008768D02*
G03X0013634Y0008952I0000260J0000000D01*
Y0005216D02*
G03X0013710Y0005400I0000184J0000184D01*
G01X0008084Y0007225D02*
G03X0008085Y0007266I0000592J0000041D01*
G01X0005950Y0005960D02*
G03X0005766Y0005884I0000000J0000260D01*
G01X0006911Y0005440D02*
G03X0007094Y0005516I0000000J0000260D01*
G01X0003090Y0005316D02*
G03X0003274Y0005240I0000184J0000184D01*
G01X0005750D02*
G03X0005934Y0005316I0000000J0000260D01*
G01X0008981Y0006021D02*
G03X0009165Y0006097I0000000J0000260D01*
G01X0010974Y0007498D02*
G03X0011175Y0007266I0000534J0000260D01*
G01X0010458Y0008018D02*
G03X0010274Y0007941I0000000J0000260D01*
G01X0008086Y0008250D02*
G03X0007824Y0008742I0000594J0000000D01*
G01X0008086Y0010218D02*
G03X0007492Y0010812I0000594J0000000D01*
G01X0007824Y0007758D02*
G03X0008086Y0008250I0000332J0000492D01*
G01X0008475Y0006774D02*
G03X0008084Y0007225I0000455J0000000D01*
G01X0010458Y0008018D02*
G03X0010274Y0007941I0000000J0000260D01*
G01X0005914Y0007266D02*
G03X0006176Y0006773I0000594J0000000D01*
G01X0007000Y0007918D02*
G03X0007160Y0007758I0000492J0000332D01*
G01X0005914Y0008250D02*
G03X0006176Y0007758I0000594J0000000D01*
G01X0007000Y0008902D02*
G03X0007160Y0008742I0000492J0000332D01*
G01X0006176Y0007758D02*
G03X0005914Y0007266I0000332J0000492D01*
Y0009234D02*
G03X0006176Y0008742I0000594J0000000D01*
G01X0007492Y0010812D02*
G03X0007000Y0010550I0000000J0000594D01*
G01X0006176Y0008742D02*
G03X0005914Y0008250I0000332J0000492D01*
Y0010218D02*
G03X0006175Y0009726I0000594J0000000D01*
G01X0006508Y0010812D02*
G03X0005914Y0010218I0000000J0000594D01*
G01X0003755Y0002537D02*
G03X0003850Y0002245I0000495J0000000D01*
G01X0004745Y0002537D02*
G03X0004250Y0003032I0000495J0000000D01*
G03X0003755Y0002537I0000000J0000495D01*
G01X0002000Y0007597D02*
G03X0001839Y0007758I0000492J0000331D01*
G01X0002000Y0008582D02*
G03X0001839Y0008742I0000492J0000332D01*
G01X0003086Y0010218D02*
G03X0002492Y0010812I0000594J0000000D01*
G01X0002824Y0007758D02*
G03X0003086Y0008250I0000332J0000492D01*
G01X0000914Y0006281D02*
G03X0001508Y0005687I0000594J0000000D01*
G01X0003027Y0006318D02*
G03X0003476Y0006774I0000007J0000456D01*
G01X0000914Y0007266D02*
G03X0001176Y0006773I0000594J0000000D01*
G01X0002000Y0007918D02*
G03X0002160Y0007758I0000492J0000332D01*
G01X0000914Y0008250D02*
G03X0001176Y0007758I0000594J0000000D01*
G01X0002000Y0008902D02*
G03X0002160Y0008742I0000492J0000332D01*
G01X0001176Y0007758D02*
G03X0000914Y0007266I0000332J0000492D01*
Y0009234D02*
G03X0001176Y0008742I0000594J0000000D01*
G01X0002492Y0010812D02*
G03X0002000Y0010550I0000000J0000594D01*
G01X0001176Y0008742D02*
G03X0000914Y0008250I0000332J0000492D01*
Y0010218D02*
G03X0001175Y0009726I0000594J0000000D01*
G01X0006175D02*
G03X0005914Y0009234I0000333J0000492D01*
G01X0001508Y0010812D02*
G03X0000914Y0010218I0000000J0000594D01*
G01X0012000Y0007426D02*
G03X0012160Y0007266I0000492J0000332D01*
G01X0010914Y0009726D02*
G03X0011176Y0009234I0000594J0000000D01*
G01X0011508Y0010320D02*
G03X0010914Y0009726I0000000J0000594D01*
Y0008742D02*
G03X0011176Y0008250I0000594J0000000D01*
G01X0011898Y0010173D02*
G03X0011508Y0010319I0000390J0000447D01*
G01X0010914Y0006774D02*
G03X0011508Y0006180I0000594J0000000D01*
G01X0010755Y0001675D02*
G03X0011250Y0001180I0000495J0000000D01*
G03X0011745Y0001675I0000000J0000495D01*
G03X0011550Y0002069I0000495J0000000D01*
G01X0010755Y0002463D02*
G03X0010950Y0002069I0000495J0000000D01*
G01X0011745Y0002463D02*
G03X0011649Y0002755I0000495J0000000D01*
G01X0011508Y0006180D02*
G03X0012000Y0006442I0000000J0000594D01*
G01X0012650Y0004260D02*
G03X0012734Y0004316I0000100J0000240D01*
G01X0010850Y0002755D02*
G03X0010755Y0002463I0000400J0000292D01*
G01X0013622Y0004254D02*
G03X0013650Y0004253I0000028J0000396D01*
G01X0010950Y0002069D02*
G03X0010755Y0001675I0000300J0000394D01*
G01X0011550Y0002069D02*
G03X0011745Y0002463I0000300J0000394D01*
G01X0010603Y0004500D02*
G03X0010689Y0004253I0000397J0000000D01*
G01X0006176Y0006773D02*
G03X0005914Y0006281I0000332J0000492D01*
G01X0013634Y0005216D02*
G03X0013710Y0005400I0000184J0000184D01*
G01X0004649Y0002245D02*
G03X0004744Y0002537I0000399J0000292D01*
G01X0001175Y0009726D02*
G03X0000914Y0009234I0000333J0000492D01*
G01X0011176D02*
G03X0010914Y0008742I0000332J0000492D01*
G01X0001839D02*
G03X0002000Y0008902I0000331J0000492D01*
G01X0001839Y0007758D02*
G03X0002000Y0007918I0000331J0000492D01*
G01X0011175Y0007266D02*
G03X0010914Y0006774I0000333J0000492D01*
G01X0012160Y0007266D02*
G03X0012000Y0007105I0000332J0000492D01*
G01X0009666Y0003284D02*
G03X0009590Y0003100I0000184J0000184D01*
G01X0013253Y0004650D02*
G03X0013254Y0004622I0000397J0000000D01*
G01X0009590Y0002049D02*
G03X0009454Y0001750I0000260J0000299D01*
G01X0010719Y0004780D02*
G03X0010603Y0004500I0000281J0000280D01*
G01X0013000Y0003740D02*
G03X0013184Y0003816I0000000J0000260D01*
G01X0006839Y0007758D02*
G03X0007000Y0007918I0000331J0000492D01*
G01X0006839Y0008742D02*
G03X0007000Y0008902I0000331J0000492D01*
G01X0012492Y0006180D02*
G03X0012990Y0006450I0000000J0000594D01*
G01X0006911Y0005440D02*
G03X0007094Y0005516I0000000J0000260D01*
G01X0008411Y0006541D02*
G03X0008475Y0006774I0000391J0000233D01*
G01X0008086Y0007266D02*
G03X0007824Y0007758I0000594J0000000D01*
G01X0011176Y0008250D02*
G03X0010974Y0008018I0000332J0000492D01*
G01X0005914Y0006281D02*
G03X0006008Y0005960I0000594J0000000D01*
G01X0007160Y0008742D02*
G03X0007000Y0008582I0000332J0000492D01*
G01X0007824Y0009726D02*
G03X0008086Y0010218I0000332J0000492D01*
G01X0007824Y0008742D02*
G03X0008086Y0009234I0000332J0000492D01*
G03X0007824Y0009726I0000594J0000000D01*
G01X0007000Y0010550D02*
G03X0006508Y0010812I0000492J0000332D01*
G01X0005750Y0005240D02*
G03X0005934Y0005316I0000000J0000260D01*
G01X0007160Y0007758D02*
G03X0007000Y0007597I0000332J0000492D01*
G01X0003084Y0007225D02*
G03X0003085Y0007266I0000592J0000041D01*
G01X0001508Y0005688D02*
G03X0001957Y0005894I0000000J0000593D01*
G01X0003475Y0006774D02*
G03X0003084Y0007225I0000455J0000000D01*
G01X0003086Y0007266D02*
G03X0002824Y0007758I0000594J0000000D01*
Y0008742D02*
G03X0003086Y0009234I0000332J0000492D01*
G01X0002160Y0007758D02*
G03X0002000Y0007597I0000332J0000492D01*
G01X0007000Y0008582D02*
G03X0006839Y0008742I0000492J0000332D01*
G01X0003086Y0008250D02*
G03X0002824Y0008742I0000594J0000000D01*
Y0009726D02*
G03X0003086Y0010218I0000332J0000492D01*
G01X0002160Y0008742D02*
G03X0002000Y0008582I0000332J0000492D01*
G01X0011840Y0007266D02*
G03X0012000Y0007426I0000332J0000492D01*
G01X0003086Y0009234D02*
G03X0002824Y0009726I0000594J0000000D01*
G01X0012000Y0007105D02*
G03X0011840Y0007266I0000492J0000331D01*
G01X0002000Y0010550D02*
G03X0001508Y0010812I0000492J0000332D01*
G54D25*
G01X0011050Y0005000D02*
X0012600D01*
X0013250Y0005650D01*
Y0007000D01*
X0012492Y0007758D01*
X0013650Y0004650D02*
X0013000Y0004000D01*
X0010750D01*
X0009850Y0003100D01*
Y0001750D01*
X0011000Y0004500D02*
X0012550D01*
X0013450Y0005400D01*
Y0008768D01*
X0012492Y0009726D01*
X0007492Y0006281D02*
X0006911Y0005700D01*
X0005950D01*
X0005750Y0005500D01*
X0003274D01*
X0002492Y0006281D01*
X0007492D02*
X0008981D01*
X0010458Y0007758D01*
X0011508D01*
G54D27*
G01X0005500Y0013917D02*
X0010000D01*
X0005500Y0016083D02*
X0010000D01*
G54D29*
G01X0014161Y0000508D02*
X0014102D01*
Y0000592D01*
X0014161D01*
Y0000508D01*
X0014368Y0000925D02*
X0014397Y0001008D01*
X0014572D01*
X0014602Y0000925D01*
Y0000842D01*
X0014572Y0000758D01*
X0014397D01*
X0014368Y0000675D01*
Y0000592D01*
X0014397Y0000508D01*
X0014572D01*
X0014602Y0000592D01*
X0014809Y0000508D02*
X0014751D01*
Y0000592D01*
X0014809D01*
Y0000508D01*
X0015017D02*
X0015221D01*
Y0001008D01*
G54D10*
X0013779Y0001968D03*
X0001968D03*
X0013779Y0015748D03*
X0001968D03*
G54D12*
X0004250Y0002537D03*
X0011250Y0002463D03*
Y0001675D03*
G54D13*
X0004250Y0001750D03*
X0011250Y0003250D03*
G54D14*
X0006508Y0010218D03*
Y0009234D03*
Y0008250D03*
Y0007266D03*
Y0006281D03*
X0007492Y0010218D03*
Y0009234D03*
Y0008250D03*
Y0007266D03*
X0001508Y0010218D03*
Y0009234D03*
Y0008250D03*
Y0007266D03*
Y0006281D03*
X0002492Y0010218D03*
Y0009234D03*
Y0008250D03*
Y0007266D03*
X0011508Y0006774D03*
Y0007758D03*
Y0008742D03*
Y0009726D03*
X0012492Y0006774D03*
Y0007758D03*
Y0008742D03*
G54D15*
X0008020Y0006774D03*
X0003020D03*
X0013020Y0008250D03*
G54D16*
X0012492Y0009726D03*
G54D17*
X0010000Y0013917D03*
X0005500D03*
G54D18*
X0010000Y0016083D03*
X0005500D03*
G54D19*
X0007492Y0006281D03*
X0002492D03*
G54D28*
X0011050Y0005000D03*
X0013650Y0004650D03*
X0009850Y0001750D03*
X0011000Y0004500D03*
M02*
