%
T1C0.0118F200S100
X009850Y001750
X011000Y004500
X011050Y005000
X013650Y004650
T2C0.0354F200S100
X004250Y001750
X004250Y002537
X011250Y001675
X011250Y002463
X011250Y003250
T5C0.0551F200S100
X005500Y013917
X005500Y016083
X010000Y013917
X010000Y016083
T3C0.0472F200S100
X001508Y006281
X001508Y007266
X001508Y008250
X001508Y009234
X001508Y010218
X002492Y007266
X002492Y008250
X002492Y009234
X002492Y010218
X006508Y006281
X006508Y007266
X006508Y008250
X006508Y009234
X006508Y010218
X007492Y007266
X007492Y008250
X007492Y009234
X007492Y010218
X011508Y006774
X011508Y007758
X011508Y008742
X011508Y009726
X012492Y006774
X012492Y007758
X012492Y008742
X012492Y009726
T6C0.0630F200S100
X002492Y006281
X007492Y006281
M30
