  0
SECTION
  2
HEADER
  9
$ANGBASE
  50
0.0
  9
$ANGDIR
  70
1
  9
$MEASUREMENT
  70
1
  0
ENDSEC
  0
SECTION
  2
TABLES
  0
TABLE
  2
LTYPE
  70
4
  0
LTYPE
  5
40F
  2
CONTINUOUS
  70
0
  3
Solid line
  72
65
  73
0
  40
0.0
  0
LTYPE
  5
410
  2
DASHDOT
 70
0
  3
Dash Dot ____ _ ____ _
 72
65
 73
4
 40
2.0
 49
1.25
 49
-0.25
 49
0.25
 49
-0.25
  0
LTYPE
  5
411
  2
DASHED
 70
0
  3
Dashed __ __ __ __ __
 72
65
 73
2
 40
0.75
 49
0.5
 49
-0.25
  0
LTYPE
  5
43B
  2
DOTTED
 70
0
  3
Dotted .  .  .  .
 72
65
 73
2
 40
0.2
 49
0.0
 49
-0.2
  0
ENDTAB
  0
TABLE
  2
STYLE
  70
4
  0
STYLE
  2
KICAD
  70
0
  40
0
  41
1
  42
1
  50
0
  71
0
  3
isocp.shx
  0
STYLE
  2
KICADB
  70
0
  40
0
  41
1
  42
1
  50
0
  71
0
  3
isocp.shx
  0
STYLE
  2
KICADI
  70
0
  40
0
  41
1
  42
1
  50
15
  71
0
  3
isocp.shx
  0
STYLE
  2
KICADBI
  70
0
  40
0
  41
1
  42
1
  50
15
  71
0
  3
isocp.shx
  0
ENDTAB
  0
TABLE
  2
LAYER
  70
1
  0
LAYER
  2
BLACK
  70
0
  62
7
  6
CONTINUOUS
  0
ENDTAB
  0
ENDSEC
  0
SECTION
  2
ENTITIES
0
LINE
8
BLACK
6
CONTINUOUS
10
151.002
20
-27.95
11
151.01
21
-27.9507
0
LINE
8
BLACK
6
CONTINUOUS
10
151.01
20
-27.9507
11
151.019
21
-27.9536
0
LINE
8
BLACK
6
CONTINUOUS
10
151.019
20
-27.9536
11
151.028
21
-27.9582
0
LINE
8
BLACK
6
CONTINUOUS
10
151.028
20
-27.9582
11
151.036
21
-27.9645
0
LINE
8
BLACK
6
CONTINUOUS
10
151.036
20
-27.9645
11
151.042
21
-27.9721
0
LINE
8
BLACK
6
CONTINUOUS
10
151.042
20
-27.9721
11
151.046
21
-27.9808
0
LINE
8
BLACK
6
CONTINUOUS
10
151.046
20
-27.9808
11
151.049
21
-27.9902
0
LINE
8
BLACK
6
CONTINUOUS
10
151.049
20
-27.9902
11
151.05
21
-28
0
LINE
8
BLACK
6
CONTINUOUS
10
151.05
20
-28
11
151.05
21
-28.0024
0
LINE
8
BLACK
6
CONTINUOUS
10
151.05
20
-28.0024
11
151.05
21
-67.9976
0
LINE
8
BLACK
6
CONTINUOUS
10
151.05
20
-67.9976
11
151.05
21
-68
0
LINE
8
BLACK
6
CONTINUOUS
10
151.05
20
-68
11
151.05
21
-68.0024
0
LINE
8
BLACK
6
CONTINUOUS
10
151.05
20
-68.0024
11
151.05
21
-68.0024
0
LINE
8
BLACK
6
CONTINUOUS
10
151.05
20
-68.0024
11
151.049
21
-68.0098
0
LINE
8
BLACK
6
CONTINUOUS
10
151.049
20
-68.0098
11
151.046
21
-68.0192
0
LINE
8
BLACK
6
CONTINUOUS
10
151.046
20
-68.0192
11
151.042
21
-68.0279
0
LINE
8
BLACK
6
CONTINUOUS
10
151.042
20
-68.0279
11
151.036
21
-68.0355
0
LINE
8
BLACK
6
CONTINUOUS
10
151.036
20
-68.0355
11
151.028
21
-68.0418
0
LINE
8
BLACK
6
CONTINUOUS
10
151.028
20
-68.0418
11
151.019
21
-68.0464
0
LINE
8
BLACK
6
CONTINUOUS
10
151.019
20
-68.0464
11
151.01
21
-68.0493
0
LINE
8
BLACK
6
CONTINUOUS
10
151.01
20
-68.0493
11
151
21
-68.0502
0
LINE
8
BLACK
6
CONTINUOUS
10
151
20
-68.0502
11
150.998
21
-68.05
0
LINE
8
BLACK
6
CONTINUOUS
10
150.998
20
-68.05
11
51.0024
21
-68.05
0
LINE
8
BLACK
6
CONTINUOUS
10
51.0024
20
-68.05
11
51
21
-68.0502
0
LINE
8
BLACK
6
CONTINUOUS
10
51
20
-68.0502
11
50.9902
21
-68.0493
0
LINE
8
BLACK
6
CONTINUOUS
10
50.9902
20
-68.0493
11
50.9808
21
-68.0464
0
LINE
8
BLACK
6
CONTINUOUS
10
50.9808
20
-68.0464
11
50.9721
21
-68.0418
0
LINE
8
BLACK
6
CONTINUOUS
10
50.9721
20
-68.0418
11
50.9645
21
-68.0355
0
LINE
8
BLACK
6
CONTINUOUS
10
50.9645
20
-68.0355
11
50.9582
21
-68.0279
0
LINE
8
BLACK
6
CONTINUOUS
10
50.9582
20
-68.0279
11
50.9536
21
-68.0192
0
LINE
8
BLACK
6
CONTINUOUS
10
50.9536
20
-68.0192
11
50.9507
21
-68.0098
0
LINE
8
BLACK
6
CONTINUOUS
10
50.9507
20
-68.0098
11
50.9498
21
-68
0
LINE
8
BLACK
6
CONTINUOUS
10
50.9498
20
-68
11
50.95
21
-67.9976
0
LINE
8
BLACK
6
CONTINUOUS
10
50.95
20
-67.9976
11
50.95
21
-28.0025
0
LINE
8
BLACK
6
CONTINUOUS
10
50.95
20
-28.0025
11
50.9498
21
-28
0
LINE
8
BLACK
6
CONTINUOUS
10
50.9498
20
-28
11
50.9507
21
-27.9902
0
LINE
8
BLACK
6
CONTINUOUS
10
50.9507
20
-27.9902
11
50.9536
21
-27.9808
0
LINE
8
BLACK
6
CONTINUOUS
10
50.9536
20
-27.9808
11
50.9582
21
-27.9721
0
LINE
8
BLACK
6
CONTINUOUS
10
50.9582
20
-27.9721
11
50.9645
21
-27.9645
0
LINE
8
BLACK
6
CONTINUOUS
10
50.9645
20
-27.9645
11
50.9721
21
-27.9582
0
LINE
8
BLACK
6
CONTINUOUS
10
50.9721
20
-27.9582
11
50.9808
21
-27.9536
0
LINE
8
BLACK
6
CONTINUOUS
10
50.9808
20
-27.9536
11
50.9902
21
-27.9507
0
LINE
8
BLACK
6
CONTINUOUS
10
50.9902
20
-27.9507
11
50.9976
21
-27.95
0
LINE
8
BLACK
6
CONTINUOUS
10
50.9976
20
-27.95
11
51
21
-27.9498
0
LINE
8
BLACK
6
CONTINUOUS
10
51
20
-27.9498
11
51.0024
21
-27.95
0
LINE
8
BLACK
6
CONTINUOUS
10
51.0024
20
-27.95
11
150.998
21
-27.95
0
LINE
8
BLACK
6
CONTINUOUS
10
150.998
20
-27.95
11
151
21
-27.9498
0
LINE
8
BLACK
6
CONTINUOUS
10
151
20
-27.9498
11
151.002
21
-27.95
0
LINE
8
BLACK
6
CONTINUOUS
10
51.05
20
-28.05
11
51.05
21
-67.95
0
LINE
8
BLACK
6
CONTINUOUS
10
51.05
20
-67.95
11
150.95
21
-67.95
0
LINE
8
BLACK
6
CONTINUOUS
10
150.95
20
-67.95
11
150.95
21
-28.05
0
LINE
8
BLACK
6
CONTINUOUS
10
150.95
20
-28.05
11
51.05
21
-28.05
  0
ENDSEC
  0
EOF
